<svg xmlns="http://www.w3.org/2000/svg" width="467.159" height="396.05" viewBox="0 0 467.159 396.05">
  <g id="OBJECTS" transform="translate(-322.813 -63.695)" opacity="0.35">
    <ellipse id="Ellipse_81" data-name="Ellipse 81" cx="200.105" cy="48.566" rx="200.105" ry="48.566" transform="translate(343.367 336.358)" fill="#976a4d"/>
    <g id="Group_19" data-name="Group 19" transform="translate(322.813 63.695)">
      <path id="Path_348" data-name="Path 348" d="M541.05,100.28c-7.992-5.533-17.521-8.607-27.05-10.144-4.918-.615-9.836-.922-14.754-1.23H487.873c-.307,0-.615-.307-.922-.307-.615,15.676-3.689,31.968-5.533,42.419-5.533,30.738-15.677,61.169-30.431,88.526A201.559,201.559,0,0,1,430.7,249.975c14.14-8.914,26.127-21.824,41.8-28.586,10.144-4.611,21.209-7.07,31.353-11.373a136.179,136.179,0,0,0,26.127-14.754c15.062-11.373,26.742-27.664,29.2-46.722C561.952,130.4,556.419,111.039,541.05,100.28Zm-13.217,69.776c-4.918,4.3-11.373,6.455-17.213,8.607-6.762,2.459-13.525,4-20.595,3.689-9.836-.922,4.3-45.185,6.762-51.025,2.152-4.918,4.918-10.144,9.529-12.91,4-2.459,9.221-2.766,13.832-1.844,10.758,2.459,17.213,11.988,18.135,22.439C539.513,149.769,536.132,162.986,527.832,170.056Z" transform="translate(-99.076 -12.047)" fill="#fff"/>
      <path id="Path_349" data-name="Path 349" d="M634.719,99.19a48.934,48.934,0,0,0-16.291-8.607c-11.68-4-24.283-5.84-36.271-7.685-44.57-7.377-89.755-11.68-134.94-7.992-21.209,1.844-42.726,4.918-63.321,11.373-15.984,5.225-31.66,13.217-41.5,27.05,4.611,6.455,13.217,9.836,20.9,12.3,11.68,3.689,23.361,7.377,35.349,10.758,23.976,6.762,48.259,12.3,72.849,15.369,44.263,5.533,90.37,2.459,131.866-15.984a169.546,169.546,0,0,0,28.279-15.676c4.3-2.766,12.6-6.455,11.066-11.988C642.1,104.723,637.486,101.035,634.719,99.19Z" transform="translate(-282.194 -43.232)" fill="#ce792d"/>
      <path id="Path_350" data-name="Path 350" d="M343.368,119.109c10.451-15.676,28.586-24.283,46.107-29.2,21.517-6.148,43.955-9.529,66.394-11.066a494.073,494.073,0,0,1,70.7.922c23.361,1.844,46.722,5.225,69.776,8.914,18.75,3.074,41.189,7.07,52.562,23.976a10.763,10.763,0,0,0-.922-7.992c-4.611-8.607-15.677-11.988-23.976-14.754a276.867,276.867,0,0,0-34.734-9.529c-23.361-5.225-47.337-7.685-71.005-9.221-43.033-2.766-84.222-1.537-126.334,8.914-10.758,2.766-21.209,6.148-31.046,11.373a60.317,60.317,0,0,0-13.832,9.221c-4.3,3.689-6.455,8.3-5.226,14.14A9.155,9.155,0,0,0,343.368,119.109Z" transform="translate(-284.085 -50.855)" fill="#e1dfcd"/>
      <path id="Path_351" data-name="Path 351" d="M587.852,189.651a132.926,132.926,0,0,1-58.71,11.681,205.071,205.071,0,0,1-36.271-4.3,79.944,79.944,0,0,1-31.353-12.91c-8.914-6.455-16.6-14.447-23.668-22.746-5.533-6.455-10.758-12.91-15.677-19.672-4.611,1.23-9.221,2.459-13.832,3.381-20.287,4.3-40.574,9.221-59.325,18.443-4.611,2.459-8.914,4.918-13.217,7.685-4,2.766-8.607,5.84-10.451,10.144-2.152,4.918.307,10.144,3.381,14.14a44.119,44.119,0,0,0,9.836,10.144c15.062,11.988,34.427,17.213,52.87,21.517a584.568,584.568,0,0,0,68.853,11.373c46.722,4.918,93.444,4.611,140.166.922,21.517-1.537,43.341-3.381,64.243-7.685,19.058-4,38.73-10.451,54.1-22.746,4-3.074,7.684-6.762,8.607-11.68.922-4-.307-8.607-2.152-12.3-4.918-8.914-14.754-13.217-23.668-16.906a206.364,206.364,0,0,0-63.628-14.754A145.606,145.606,0,0,1,587.852,189.651Z" transform="translate(-319.242 98.073)" fill="#fff"/>
      <path id="Path_352" data-name="Path 352" d="M351.287,144.025c8.3,7.07,18.75,11.373,28.894,15.062a398.005,398.005,0,0,0,80.227,19.98c53.177,7.685,108.505,4.3,158.609-15.369,11.68-4.611,23.668-10.144,34.119-16.906,9.221-6.148,17.521-14.14,20.287-25.205,0-.615.307-.922.307-1.537v-.922c1.537-8.3-.615-17.828-7.684-23.054-4.611-3.381-10.451-4.918-15.984-6.148-7.07-1.844-14.14-3.381-20.9-5.225C553.851,66.564,472.7,55.5,398.009,79.475a287.112,287.112,0,0,0-38.115,14.754c-9.529,4.3-20.9,10.144-22.439,21.209C335.3,126.2,342.68,136.955,351.287,144.025Zm-1.537-35.349c3.689-4.3,8.914-7.685,13.832-10.451a136.545,136.545,0,0,1,15.062-7.377c10.758-4.3,22.131-7.07,33.812-9.529,12.3-2.459,24.59-4,36.578-5.84,58.095-8.3,118.342-2.152,174.592,14.754,10.144,3.074,21.517,6.148,30.123,12.91,7.377,5.84,11.988,15.369,6.148,24.283-3.074,4.611-7.377,7.685-11.68,10.758-4.918,3.381-9.836,6.455-14.754,9.529a197.828,197.828,0,0,1-30.738,14.14c-45.8,16.6-95.288,16.291-142.625,7.685-25.82-4.611-51.025-11.68-75.923-19.672-10.451-3.381-23.054-5.84-31.353-14.14a12.3,12.3,0,0,1-3.074-3.689v-.307C345.446,124.967,344.217,115.438,349.75,108.676Z" transform="translate(-293.233 -59.479)" fill="#fff"/>
      <path id="Path_353" data-name="Path 353" d="M665.483,138.718a291.971,291.971,0,0,0,4.611-32.89c.615-5.84.922-11.988,1.537-17.828-.615.922-1.537,1.844-2.152,2.766-7.684,9.221-17.828,15.676-28.586,21.209a279.573,279.573,0,0,1-38.423,15.676c-54.1,16.906-112.194,16.6-167.83,5.225-14.447-3.074-28.586-6.762-42.726-11.066-11.373-3.689-23.054-7.377-33.812-12.91-7.992-4.3-15.676-10.144-20.9-17.521a341.538,341.538,0,0,0,11.68,52.562,362.756,362.756,0,0,0,23.054,58.1,360.161,360.161,0,0,0,33.2,52.562,303.8,303.8,0,0,0,20.287,23.668c7.377,7.685,15.676,14.754,25.82,18.75,10.451,4.3,22.439,6.148,33.5,7.377a146.041,146.041,0,0,0,34.734.922,131.43,131.43,0,0,0,51.947-17.213,156.113,156.113,0,0,0,34.734-26.742,3.244,3.244,0,0,1,2.766-2.766,198.086,198.086,0,0,0,37.5-57.173C655.647,181.444,661.487,160.235,665.483,138.718Z" transform="translate(-292.978 -13.291)" fill="#fff"/>
      <path id="Path_354" data-name="Path 354" d="M542.094,184.617c-49.181,2.766-98.669,2.152-147.236-4.611-15.984-2.152-32.275-4.918-48.259-8.607,4.918,5.225,11.988,8.3,18.75,10.144,10.144,2.766,20.595,4.3,31.046,5.84,42.111,6.148,84.837,6.762,127.563,4.918q31.814-1.383,63.628-4.611c10.144-.922,20.9-1.229,30.738-4a33.528,33.528,0,0,0,11.988-5.84,20.687,20.687,0,0,0,4.3-4.611c-7.07,1.844-14.447,3.381-21.824,4.611C589.431,181.544,565.455,183.388,542.094,184.617Z" transform="translate(-273.484 159.665)" fill="#e1dfcd"/>
      <path id="Path_355" data-name="Path 355" d="M773.086,151.929c-8.3-7.685-19.058-11.988-30.123-14.14a113.1,113.1,0,0,0-17.828-1.537,86.381,86.381,0,0,0-8.914.307,11.948,11.948,0,0,0-4.611.615c-.307,0-.615.307-.922.307a97.356,97.356,0,0,0-.615-13.525c-1.229-10.758-4.3-20.287-10.451-26.435-4.3-4-9.836-6.455-15.676-8.3-13.832-4-28.586-7.07-42.726-10.144-14.447-3.074-29.2-6.148-43.956-8.607a508.329,508.329,0,0,0-71.62-6.455c-.307,0-.615-.307-.922-.307-28.279-.307-56.865,4-83.915,11.066a383.012,383.012,0,0,0-40.267,12.91c-11.373,4.3-24.283,8.607-32.89,16.906a24.454,24.454,0,0,0-6.762,11.373,2.075,2.075,0,0,0-1.229,1.844,277.5,277.5,0,0,0,7.992,63.628A356.9,356.9,0,0,0,388.86,242.3a335.794,335.794,0,0,0,32.275,55.636c.615.922,1.537,2.152,2.152,3.074-20.9,2.459-42.111,7.07-61.476,15.062-9.836,4-19.672,8.914-28.279,15.369-3.689,2.766-7.685,5.84-9.529,10.451-2.152,4.918-1.23,10.144,1.537,14.754,9.529,17.213,29.816,26.742,47.951,32.275A172.67,172.67,0,0,0,390.4,393.53c9.529,13.217,27.972,16.6,43.033,19.058a477.25,477.25,0,0,0,66.087,7.07c44.878,2.152,89.448-.307,134.018-4.3,6.455-.615,12.6-1.229,19.058-1.844,5.533-.615,11.373-1.23,16.6-3.074,7.684-2.459,16.906-7.685,19.365-15.984,11.066-3.381,21.824-7.685,31.66-14.14,8.607-5.533,17.828-12.6,18.135-23.668.307-10.758-6.762-19.365-15.062-25.205-9.529-6.455-20.9-10.144-31.66-13.525a196.368,196.368,0,0,0-35.349-7.992c-.922,0-1.844-.307-2.766-.307,14.447-7.992,26.127-20.287,40.882-28.279,10.451-5.533,22.131-7.992,32.89-12.3a136.263,136.263,0,0,0,27.972-15.062c16.6-11.988,30.123-29.2,33.5-49.8C792.451,185.741,787.84,165.146,773.086,151.929ZM366.42,119.039c1.844-11.066,13.217-16.906,22.439-21.209a407.137,407.137,0,0,1,38.115-14.754c75-23.668,155.842-12.91,231.151,5.225,7.07,1.537,14.14,3.381,20.9,5.225,5.533,1.537,11.373,2.766,15.984,6.148,7.377,5.225,9.221,14.754,7.684,23.054v.922c0,.615-.307.922-.307,1.537-2.766,11.066-10.758,19.058-20.287,25.205-10.451,7.07-22.439,12.3-34.119,16.906-50.1,19.672-105.432,23.054-158.609,15.369a419.705,419.705,0,0,1-80.227-19.98c-10.144-3.689-20.595-8.3-28.894-15.062C372.261,141.17,364.884,130.412,366.42,119.039ZM679.335,401.215a33.528,33.528,0,0,1-11.988,5.84c-9.836,2.766-20.594,3.074-30.738,4-21.209,1.844-42.419,3.689-63.628,4.611-42.419,1.844-85.145,1.537-127.563-4.918-10.451-1.537-20.9-3.074-31.046-5.84-7.07-1.844-13.832-4.918-18.75-10.144,15.984,3.689,31.968,6.455,48.259,8.607,48.874,6.762,98.055,7.377,147.236,4.611,23.668-1.229,47.337-3.074,70.7-6.762a171.906,171.906,0,0,0,21.824-4.611A15.422,15.422,0,0,1,679.335,401.215Zm26.127-70.39c8.914,3.689,18.75,7.992,23.668,16.906a17.159,17.159,0,0,1,2.152,12.3c-1.229,4.918-4.918,8.607-8.607,11.681-15.369,12.6-34.734,19.058-54.1,22.746-21.209,4.3-42.726,5.84-64.243,7.685-46.722,3.689-93.751,4-140.166-.922a584.568,584.568,0,0,1-68.853-11.373c-18.443-4.3-37.808-9.221-52.87-21.517a61.257,61.257,0,0,1-9.836-10.144c-3.074-4-5.84-9.221-3.381-14.14,2.152-4.3,6.455-7.377,10.451-10.144a113.713,113.713,0,0,1,13.217-7.685c18.443-9.529,39.037-14.447,59.324-18.443,4.611-.922,9.221-2.152,13.832-3.381,4.918,6.762,10.144,13.217,15.677,19.672,7.07,8.3,14.754,16.291,23.668,22.746,9.221,6.762,19.98,10.451,31.353,12.91a208.514,208.514,0,0,0,36.271,4.3,137.364,137.364,0,0,0,58.71-11.68,160.784,160.784,0,0,0,50.411-35.349A181.672,181.672,0,0,1,705.462,330.825ZM639.068,309a3.634,3.634,0,0,0-2.766,2.766,163.485,163.485,0,0,1-34.734,26.742c-15.984,8.914-33.5,15.369-51.947,17.213a145.611,145.611,0,0,1-34.734-.922c-11.373-1.537-23.054-3.074-33.5-7.377-9.836-4.3-18.135-11.066-25.82-18.75A249.366,249.366,0,0,1,435.274,305a322.2,322.2,0,0,1-33.2-52.562,326.666,326.666,0,0,1-23.054-58.1,341.526,341.526,0,0,1-11.68-52.562c5.225,7.377,12.91,13.217,20.9,17.521,10.451,5.533,22.131,9.529,33.812,12.91,14.14,4.3,28.279,7.992,42.726,11.066,55.329,11.373,113.424,11.988,167.83-5.225a245.691,245.691,0,0,0,38.423-15.676c10.758-5.533,20.9-11.988,28.586-21.209a16.9,16.9,0,0,0,2.152-2.766c-.615,5.84-.922,11.988-1.537,17.828-1.229,11.066-2.766,21.824-4.611,32.89-4,21.517-9.836,42.726-18.75,62.706C667.347,272.73,654.744,292.4,639.068,309ZM783.229,200.188c-2.459,19.058-14.14,35.349-29.2,46.722A109.813,109.813,0,0,1,727.9,261.664c-10.451,4.3-21.209,6.762-31.353,11.373-15.369,6.762-27.357,19.98-41.8,28.586a201.57,201.57,0,0,0,20.287-30.431,302.337,302.337,0,0,0,30.431-88.526c1.844-10.451,4.918-26.742,5.533-42.419.307,0,.615.307.922.307a14.813,14.813,0,0,0,3.689,0h7.685a79.68,79.68,0,0,1,14.754,1.23c9.529,1.537,19.058,4.611,27.05,10.144C780.156,162.687,785.688,182.052,783.229,200.188Z" transform="translate(-322.813 -63.695)" fill="#431715"/>
      <path id="Path_356" data-name="Path 356" d="M343.953,127.933a32.558,32.558,0,0,0,3.074,3.689c8.3,7.992,20.9,10.758,31.353,14.14A639.984,639.984,0,0,0,454.3,165.434c47.337,8.607,96.825,8.914,142.625-7.685a197.825,197.825,0,0,0,30.738-14.14,121.134,121.134,0,0,0,14.754-9.529c4.3-3.074,8.607-6.148,11.68-10.758,5.84-8.914,1.229-18.443-6.148-24.283-8.607-6.762-19.98-9.836-30.123-12.91-56.251-16.906-116.5-23.054-174.592-14.754-12.3,1.844-24.59,3.381-36.578,5.84-11.373,2.152-22.746,4.918-33.812,9.529a114.119,114.119,0,0,0-15.062,7.377c-4.918,2.766-10.144,6.148-13.832,10.451-5.84,6.762-4.611,16.291,0,23.361Zm292.627,4.3A169.54,169.54,0,0,1,608.3,147.913c-41.5,18.443-87.6,21.517-131.866,15.984-24.59-3.074-48.874-8.607-72.849-15.369-11.988-3.381-23.668-7.07-35.349-10.758-7.377-2.459-15.984-5.533-20.9-12.3,9.836-13.832,25.513-21.824,41.5-27.05,20.287-6.455,42.111-9.836,63.321-11.373,45.185-3.689,90.37.615,134.94,7.992,11.988,1.844,24.59,3.689,36.271,7.685a55.278,55.278,0,0,1,16.291,8.607c2.459,2.152,7.377,5.84,7.992,8.914C649.49,125.781,640.883,129.163,636.58,132.236ZM349.794,104.572c4.3-3.689,9.221-6.455,13.832-9.221,9.836-5.225,20.287-8.607,31.046-11.373C436.782,73.527,477.971,72.3,521,75.063a498.551,498.551,0,0,1,71.005,9.221,341.528,341.528,0,0,1,34.734,9.529c8.3,2.766,19.365,6.148,23.976,14.754a10.631,10.631,0,0,1,.922,7.992c-11.373-16.906-33.5-20.9-52.562-23.976-23.361-3.689-46.415-7.07-69.776-8.914a492.913,492.913,0,0,0-70.7-.922c-22.132,1.537-44.878,4.611-66.394,11.066-17.521,5.225-35.656,13.832-46.107,29.2a13.583,13.583,0,0,1-1.844-4.918C343.031,112.871,345.49,108.261,349.794,104.572Z" transform="translate(-287.129 -55.376)" fill="#431715"/>
      <path id="Path_357" data-name="Path 357" d="M482.532,98.023A19.77,19.77,0,0,0,468.7,99.867c-4.918,2.766-7.685,7.992-9.529,12.91-2.459,5.84-16.906,50.1-6.762,51.025,7.07.615,14.14-1.23,20.595-3.689,5.84-2.152,12.6-4.3,17.213-8.607,8.3-7.377,11.68-20.287,10.451-31.046C499.745,110.01,493.29,100.482,482.532,98.023Zm4.918,47.337c-4,4.3-10.451,6.148-15.676,7.992a50.987,50.987,0,0,1-15.062,3.381,23.1,23.1,0,0,0,0-4.611,12.846,12.846,0,0,0-1.229-3.074c1.229-8.914,2.459-17.521,5.226-26.127s6.455-20.595,17.213-20.595c9.221,0,15.676,7.377,17.521,15.984C496.978,127.224,493.9,138.9,487.45,145.359Z" transform="translate(-61.46 6.502)" fill="#431715"/>
      <path id="Path_358" data-name="Path 358" d="M541.972,108.276c-8.607-13.217-27.357-18.443-41.5-11.68-5.533,2.459-10.758,6.762-16.291,8.607-.922,5.84-1.844,11.066-2.766,15.369-5.533,30.738-15.676,61.169-30.431,88.526A201.56,201.56,0,0,1,430.7,239.528c14.14-8.914,26.127-21.824,41.8-28.586a99.939,99.939,0,0,1,12.3-4.611.3.3,0,0,1,.307-.307c2.152-5.225,3.689-11.066,7.377-15.369a32.375,32.375,0,0,1,11.373-7.685c11.988-5.533,26.127-7.992,35.042-17.828,7.992-8.607,9.836-21.209,9.529-32.89C548.12,123.952,546.583,115.346,541.972,108.276Zm-14.14,51.333c-4.918,4.3-11.373,6.455-17.213,8.607-6.762,2.459-13.525,4-20.595,3.689-9.836-.922,4.3-45.185,6.762-51.025,2.152-4.918,4.918-10.144,9.529-12.91,4-2.459,9.221-2.766,13.832-1.844,10.758,2.459,17.213,11.988,18.135,22.439C539.513,139.321,536.132,152.539,527.832,159.609Z" transform="translate(-99.076 -1.599)" fill="#e1dfcd"/>
      <path id="Path_359" data-name="Path 359" d="M554.622,112.183A279.573,279.573,0,0,1,516.2,127.86c-4.611,1.537-9.221,2.766-13.832,4-1.537,33.5-6.148,67.624-24.283,95.288-9.836,15.062-23.668,27.357-37.808,38.115-18.75,14.447-39.345,27.357-61.476,35.656,6.762,1.537,13.525,2.459,20.287,3.381a146.045,146.045,0,0,0,34.734.922,131.431,131.431,0,0,0,51.947-17.213A156.115,156.115,0,0,0,520.5,261.263a3.244,3.244,0,0,1,2.766-2.766,198.086,198.086,0,0,0,37.5-57.173c8.914-19.98,14.754-41.189,18.75-62.706a291.944,291.944,0,0,0,4.611-32.89c.615-5.84.922-11.988,1.537-17.828-.615.922-1.537,1.844-2.152,2.766C575.524,100.5,565.38,106.958,554.622,112.183Z" transform="translate(-206.707 -13.498)" fill="#e1dfcd"/>
      <path id="Path_360" data-name="Path 360" d="M590.663,166.328q-10.144-4.15-21.209-8.3a151.857,151.857,0,0,1-29.816,17.521,132.926,132.926,0,0,1-58.71,11.681,205.071,205.071,0,0,1-36.271-4.3,79.944,79.944,0,0,1-31.353-12.91c-8.607-6.148-15.676-13.832-22.746-21.517-12.91,3.689-24.9,7.377-36.271,17.213-3.074,2.459-5.84,5.533-6.455,9.529-.307,3.074.922,6.455,2.766,9.221,5.225,7.07,14.447,9.836,23.054,11.68,22.131,4.918,44.57,7.07,67.009,9.221,25.205,2.459,50.411,4.918,75.616,3.689s50.718-6.148,73.157-17.828c6.455-3.381,13.525-9.529,11.066-16.291C599.577,170.324,594.966,168.172,590.663,166.328Z" transform="translate(-271.027 112.175)" fill="#e1dfcd"/>
      <path id="Path_361" data-name="Path 361" d="M564.454,112.756c4.3-2.766,12.6-6.455,11.066-11.988-.922-3.381-5.533-7.07-7.992-8.914a48.934,48.934,0,0,0-16.291-8.607A193.994,193.994,0,0,0,524.8,77.1a17.841,17.841,0,0,1,5.84,8.3c2.459,8.3-2.152,16.906-8.3,23.054-9.529,9.836-22.439,15.369-35.349,19.672a245.219,245.219,0,0,1-84.222,13.217c-9.221,0-18.75-.615-27.972-1.537,9.836,1.844,19.672,3.689,29.509,4.918,44.263,5.533,90.37,2.459,131.866-15.984A196.641,196.641,0,0,0,564.454,112.756Z" transform="translate(-215.003 -35.895)" fill="#b6661c"/>
      <path id="Path_362" data-name="Path 362" d="M568.325,81.262v-.615c-39.96-5.84-80.534-9.221-121.108-5.84-21.209,1.844-42.726,4.918-63.321,11.373-15.984,5.225-31.66,13.217-41.5,27.05,2.766,4,7.07,6.455,11.373,8.607,5.533-5.225,10.758-10.758,17.213-14.447,7.377-4.3,15.676-6.455,23.976-8.607C452.135,85.258,510.845,72.656,568.325,81.262Z" transform="translate(-282.194 -43.439)" fill="#e1a14f"/>
      <path id="Path_363" data-name="Path 363" d="M433.339,91.421c-7.377-.922-14.754,1.844-20.595,5.225-3.381,1.844-6.762,4-10.144,5.533a29.305,29.305,0,0,1-8.3,2.766,1.69,1.69,0,0,0-1.537.922c-1.229,2.766,2.459,4.3,4.918,4.611,3.689.615,7.377-.922,10.758-2.459,6.148-2.459,11.373-6.762,17.828-8.3a23.728,23.728,0,0,1,4.611-.615c2.152,0,4,.615,5.84-.307,1.537-.922,2.459-1.844,2.152-3.381C438.257,92.958,435.8,91.728,433.339,91.421Z" transform="translate(-178.254 -6.568)" fill="#f5e1d1"/>
      <path id="Path_364" data-name="Path 364" d="M446.835,88.518c-5.533-.307-11.68,2.152-16.6,4a130.567,130.567,0,0,0-15.062,6.455c-5.533,2.459-11.066,4.611-16.906,5.533a39.706,39.706,0,0,1-10.451.307c-3.381-.307-6.762-2.152-10.144-1.844a1.953,1.953,0,0,0-1.844,2.766c2.459,4.3,10.143,5.84,14.754,6.762a47.808,47.808,0,0,0,17.521-.615c10.758-2.766,20.287-8.3,30.738-11.373,4.611-1.23,11.066-1.23,14.447-4.918C456.671,91.591,450.216,88.518,446.835,88.518Z" transform="translate(-213.266 -12.272)" fill="#f5e1d1"/>
      <path id="Path_365" data-name="Path 365" d="M439.427,87.846c-1.844-2.459-4.918-2.459-7.992-2.152-11.373,1.23-20.287,8.3-30.738,11.68-5.533,1.844-11.988,3.074-18.135,2.152-2.766-.307-5.226-1.537-7.992-2.152-.922-.307-4-.615-4.3.615-.922,4,4.918,5.84,8.3,7.07a37.027,37.027,0,0,0,15.369,1.537,62.117,62.117,0,0,0,16.906-4.3c4.918-2.152,9.529-4.611,14.754-6.455a31.211,31.211,0,0,1,7.685-1.844c2.459-.307,4.918-.615,6.455-3.074C440.349,90,440.349,89.075,439.427,87.846Z" transform="translate(-224.608 -18.362)" fill="#f5e1d1"/>
      <path id="Path_366" data-name="Path 366" d="M433.331,82.61c-5.84-2.766-14.447-1.537-20.595,0-6.148,1.23-11.68,4-17.828,4.918a41.373,41.373,0,0,1-15.062-.307,60.658,60.658,0,0,1-7.992-2.152c-1.229-.307-2.152-.922-3.381-1.23h-2.459a.661.661,0,0,0-.615.615c.307.922,0,1.537.615,2.459a14.2,14.2,0,0,0,2.152,2.152,55.907,55.907,0,0,0,7.07,4.611,41.252,41.252,0,0,0,17.213,3.689c6.455,0,12.3-1.537,18.443-3.381a54,54,0,0,1,10.143-2.152c3.689-.307,7.377.307,11.066-.615C436.405,89.987,437.327,84.454,433.331,82.61Z" transform="translate(-234.496 -27.881)" fill="#f5e1d1"/>
      <path id="Path_367" data-name="Path 367" d="M402.582,81.266c-.615-1.23-2.766-1.844-4.3-1.844-2.766-.615-5.84.307-8.607.615a54.413,54.413,0,0,1-7.07.307,22.959,22.959,0,0,1-6.148-.922,13.073,13.073,0,0,0-3.381-.615c-.307,0-.922-.307-1.229-.307-.615,0-.615.307-1.229,0a.661.661,0,0,0-.615.615c.307.615.307,1.23.615,1.844a6.43,6.43,0,0,0,1.229,1.844,14.189,14.189,0,0,0,4.611,2.766,30.3,30.3,0,0,0,11.68,2.152,41.193,41.193,0,0,0,6.148-.307,13.951,13.951,0,0,0,7.07-2.459C401.66,84.34,403.2,82.5,402.582,81.266Z" transform="translate(-224.957 -32.992)" fill="#f5e1d1"/>
      <path id="Path_368" data-name="Path 368" d="M387.551,79.3c-.307-.615-1.229-1.23-1.844-1.844a7.6,7.6,0,0,0-2.766-1.23c-.615-.307-.922-.307-1.537-.615-.615,0-.922-.307-1.537-.307a1.848,1.848,0,0,0-1.229.307.952.952,0,0,0-.615.307h-.307a.661.661,0,0,0-.615.615v.307h0v1.23c.307.615.922.922,1.229,1.537.307.307.615.307.922.615a6.693,6.693,0,0,0,2.459,1.537c.307,0,.615.307.922.307s.615.307,1.229.307h1.229a2.588,2.588,0,0,0,2.152-1.23C388.166,80.833,388.166,79.911,387.551,79.3Z" transform="translate(-210.233 -39.628)" fill="#f5e1d1"/>
      <path id="Path_369" data-name="Path 369" d="M429.681,93.321c.307.615,0-.307,0-.307-.307-.922-.922-1.844-1.23-2.766a18.019,18.019,0,0,0-4-5.84,27.514,27.514,0,0,0-12.91-6.762,66.43,66.43,0,0,0-17.521-1.23c-2.152,0-4.3.307-6.455.307a20.412,20.412,0,0,1-4.611-.922,1.129,1.129,0,0,0-.922.307c-1.229,3.689,3.381,5.84,6.762,6.762,4.918,1.537,10.451,1.23,15.369,2.152,4,.922,8.3,2.459,10.451,4.918,0,0,.615.615.615.922l.615.922c.307.922.615,1.537.922,2.459.922,2.459,2.152,5.533,4.918,6.455,3.689,1.23,8.607-.307,8.3-4.3A2.768,2.768,0,0,0,429.681,93.321Z" transform="translate(-200.416 -38.591)" fill="#f5e1d1"/>
      <path id="Path_370" data-name="Path 370" d="M413.088,87.981a12.688,12.688,0,0,0-4.611-8.607c-2.459-1.844-6.762-3.689-9.221-.922a1.4,1.4,0,0,0,0,1.537,5.529,5.529,0,0,0,2.766,1.844,7.182,7.182,0,0,1,2.152,2.152c1.229,2.152.615,4.3-.307,6.455-2.459,5.225-7.992,15.369-.615,19.058a4.265,4.265,0,0,0,5.225-1.23c1.537-1.537,1.537-3.689,1.844-5.84a4.568,4.568,0,0,1,.307-1.844,7.235,7.235,0,0,0,.615-2.459A15.548,15.548,0,0,0,413.088,87.981Z" transform="translate(-164.765 -36.018)" fill="#f5e1d1"/>
      <path id="Path_371" data-name="Path 371" d="M421.165,84.033c-1.844-2.459-4.918-5.533-8.3-5.533a1.721,1.721,0,0,0-1.844,1.537c.307,2.459,1.844,4.611,2.459,7.07v.307h0v4.918h0c0,.307-.307.615-.307.922-.307.615-.307.922-.615,1.537V95.1c-.307.307-.307.615-.615.922a32.668,32.668,0,0,1-2.766,3.381c-3.074,3.381-6.148,8.3-1.844,11.988a5.9,5.9,0,0,0,5.533,1.23,7.238,7.238,0,0,0,3.074-1.537l.615-.615h0c.307.307,1.844-2.459,2.152-2.766a44.963,44.963,0,0,0,2.766-4,18.1,18.1,0,0,0,3.074-10.451A18.851,18.851,0,0,0,421.165,84.033Z" transform="translate(-151.94 -32.992)" fill="#f5e1d1"/>
      <g id="Group_18" data-name="Group 18" transform="translate(264.642 61.433)">
        <path id="Path_372" data-name="Path 372" d="M413.707,86.286c0-.307,0,0-.307.307h0C413.707,86.593,413.707,86.593,413.707,86.286Z" transform="translate(-399.595 -78.543)" fill="#f5e1d1"/>
        <path id="Path_373" data-name="Path 373" d="M434.087,91.424a15.429,15.429,0,0,0-.615-3.689,6.976,6.976,0,0,0-4.3-4c-2.152-.307-4,.615-4.611,2.459a1.848,1.848,0,0,1-.307,1.23h0c0,.307-.307,1.537-.307,1.23v.307h0c0,.307,0,.615-.307.615,0,.615-.307.922-.615,1.537,0,.307,0,.307-.307.615v.307h0v0a.3.3,0,0,1-.307.307c-.615.922-.922,1.537-1.537,2.459-.307.307-.615.922-.922,1.23l-.307.307L417.8,98.186c-.307.307-.615.615-.922.615h-.307c-.922.615-1.844.922-2.766,1.537-2.152.922-4,2.459-4.611,4.3a4.546,4.546,0,0,0,1.844,5.533,8.235,8.235,0,0,0,7.992,1.23,15.9,15.9,0,0,0,4-1.844c4.611-3.074,7.992-6.762,9.836-11.373A10.342,10.342,0,0,0,434.087,91.424Z" transform="translate(-408.909 -83.681)" fill="#f5e1d1"/>
      </g>
    </g>
    <path id="Path_374" data-name="Path 374" d="M358.313,192.4a1.073,1.073,0,0,1-.615-.307c-1.229-.922-3.074-1.229-4.3-1.844h0c-.307,0-.615-.307-.922-.307s-.615-.307-.922-.307-.615-.307-1.229-.307c-.307,0-.307-.307-.615-.307a7.007,7.007,0,0,0-3.381-.922H345.1a5.79,5.79,0,0,0-2.459.615,5.4,5.4,0,0,0-1.537,1.229,5.334,5.334,0,0,0-.922,4.3,9.208,9.208,0,0,0,1.23,2.459,8.286,8.286,0,0,0,2.152,2.459c.307.307.615.307,1.229.615a18.808,18.808,0,0,0,3.689,1.537,8.849,8.849,0,0,0,4,.307c1.844-.307,4-.307,5.226-1.844a.3.3,0,0,0,.307-.307,3.7,3.7,0,0,0,1.537-1.537,4.443,4.443,0,0,0,.615-2.152A2.934,2.934,0,0,0,358.313,192.4Z" transform="translate(35.772 257.993)" fill="#431715"/>
    <path id="Path_375" data-name="Path 375" d="M360.194,193.588a1.6,1.6,0,0,0,.615-1.229,1.129,1.129,0,0,0-.307-.922,2.33,2.33,0,0,0-.615-1.229c0-.307-.307-.307-.615-.615a7.7,7.7,0,0,0-1.229-2.152c-.307-.307-.307-.615-.615-.922,0-.307-.307-.307-.307-.615l-.922-.922v-.307a7.183,7.183,0,0,0-2.152-2.152,5.193,5.193,0,0,0-3.074-.922h-.307a7.343,7.343,0,0,0-2.766.615,5.22,5.22,0,0,0-1.844,1.844v.307l-.307.307a6.259,6.259,0,0,0,0,6.148c.615.922,1.229,1.537,1.537,2.152a2.363,2.363,0,0,0,.922.615c.307.307.615.307.922.615.307,0,.307.307.615.307.922.307,1.537.615,2.459.922.307,0,.307,0,.615.307a3.637,3.637,0,0,0,3.074-.307C357.735,195.432,359.579,194.817,360.194,193.588Z" transform="translate(45.879 244.513)" fill="#431715"/>
  </g>
</svg>
