<svg xmlns="http://www.w3.org/2000/svg" width="475.671" height="649.972" viewBox="0 0 475.671 649.972">
  <g id="OBJECTS" transform="translate(-180.937 -254)" opacity="0.35">
    <ellipse id="Ellipse_83" data-name="Ellipse 83" cx="137.556" cy="29.424" rx="137.556" ry="29.424" transform="translate(230.453 837.695)" fill="#976a4d"/>
    <g id="Group_29" data-name="Group 29" transform="translate(180.937 254)">
      <path id="Path_410" data-name="Path 410" d="M366.341,325.924a67.732,67.732,0,0,0-34.941,5.885c-9.931,4.781-17.654,12.137-24.642,20.6-2.575,11.4-4.781,23.171-6.988,34.941,12.873-15.08,31.631-25.746,51.492-23.539,19.493,2.207,33.47,17.287,36.78,36.044,3.678,19.493-4.781,38.987-17.654,52.963-14.712,15.815-34.573,25.01-54.066,33.837a156.979,156.979,0,0,0-24.642,12.873c-6.62,4.414-11.4,10.3-15.815,16.919-3.31,18.758-6.253,37.883-9.563,56.641a12.9,12.9,0,0,0,1.839-2.942c3.678-6.253,6.62-12.873,11.034-18.39,9.931-12.873,23.907-21.332,37.883-28.688,13.241-6.988,26.481-13.609,38.619-22.436,12.505-9.195,24.275-19.861,33.837-32.366,19.125-24.275,33.837-56.641,27.953-87.9C413.419,353.141,395.029,328.867,366.341,325.924Z" transform="translate(47.663 -62.213)" fill="#d8dada"/>
      <path id="Path_411" data-name="Path 411" d="M514.147,376.909c3.31-15.448,6.988-30.9,11.77-45.975a82.8,82.8,0,0,1,2.942-8.827,99.029,99.029,0,0,1-9.931,7.356c-15.815,41.193-24.275,84.594-31.631,127.994-6.988,39.722-12.873,79.812-19.126,119.534-1.471,9.931-3.31,20.229-4.781,30.159-1.471,9.563-2.575,19.126-6.253,27.953-5.885,14.712-18.758,25.378-32.366,33.1-27.953,16.183-62.158,18.39-93.421,13.976-29.056-4.046-62.893-16.919-73.56-45.975a.36.36,0,0,1-.368-.368c-3.31-4.046-4.781-9.195-6.253-13.976a115.79,115.79,0,0,1-3.31-15.448,240.583,240.583,0,0,1-2.942-32.366c-.736-19.861-.368-40.09-2.207-59.951a512.644,512.644,0,0,0-9.563-61.79c-4.414-20.229-9.931-40.09-15.815-59.951-2.942-9.563-5.885-19.125-8.827-29.056-1.471-5.149-3.31-10.666-4.781-15.815-1.1-4.046-2.575-8.092-2.575-12.505-5.885-4.414-11.77-9.195-16.551-15.08a36.159,36.159,0,0,1,1.839,5.885c20.229,63.629,33.837,129.1,41.929,195.3,4.046,33.1,5.885,66.2,7.724,99.305,1.1,15.448,4.414,29.792,15.448,41.561,9.93,10.3,22.8,17.286,36.044,22.436,29.056,11.4,61.054,14.344,92.317,12.137,25.746-1.839,55.905-6.253,73.927-26.849,9.931-11.034,13.241-25.746,15.815-40.09,1.471-9.563,1.471-20.6,4.046-30.159,1.839-6.62,2.575-13.609,3.678-20.229,5.517-34.573,11.4-68.778,17.654-102.983C501.642,443.112,507.527,410.01,514.147,376.909Z" transform="translate(-171.128 -77.521)" fill="#d8dada"/>
      <path id="Path_412" data-name="Path 412" d="M446.877,466.836c4.046-25.378,8.092-50.388,12.873-75.766,2.575-13.976,5.149-27.953,8.459-41.929a46.46,46.46,0,0,1-12.505,5.517c-12.137,3.678-25.01,3.678-36.412,9.195-9.563,4.414-18.39,10.3-29.056,12.505a67.387,67.387,0,0,1-30.9.368c-11.034-2.207-21.332-7.724-32.734-8.459s-22.436,2.942-33.837,4.046c-21.332,1.839-39.354-9.931-58.848-15.815-9.563-2.942-19.861-3.31-28.32-9.195a47.94,47.94,0,0,1-11.4-11.4c1.839,6.253,4.046,12.505,5.885,19.125,9.931,33.47,18.39,67.307,22.436,101.88a10.431,10.431,0,0,0,2.942,4.046,24.267,24.267,0,0,0,10.3,5.885c9.195,2.575,19.125.736,28.688,1.839,16.183,2.207,27.953,15.448,43.768,17.286,16.551,2.207,32.734-4.414,49.285-4.781,8.459,0,15.815,1.839,23.907,4.046,4.781,1.1,9.563,2.207,14.344,1.471a31.9,31.9,0,0,0,11.4-3.678c6.62-3.31,12.873-6.253,20.229-7.724,6.988-1.471,12.873-2.942,18.022-8.092C446.142,467.2,446.509,466.836,446.877,466.836Z" transform="translate(-145.419 -34.673)" fill="#845a3e"/>
      <path id="Path_413" data-name="Path 413" d="M358.711,423.653c-7.724-1.839-15.08-5.517-23.171-5.149-7.356.368-13.976,4.414-20.6,7.724-5.885,2.942-12.505,5.149-19.125,4.781-6.988-.368-13.609-3.31-19.861-6.253-7.356-3.31-14.712-6.988-22.8-8.092-8.459-1.1-16.919-1.1-25.01-3.31a47.282,47.282,0,0,1-16.919-9.195A43.2,43.2,0,0,1,203.5,395.7l1.1,7.724a115.8,115.8,0,0,0,3.31,15.448c.368,1.839,1.1,3.678,1.471,5.149.368.368.368.736.736,1.1,11.4,37.883,55.537,48.917,90.478,50.388,30.527,1.471,63.629-5.149,86.8-26.481,6.253-5.885,11.77-12.873,14.712-20.965a79.536,79.536,0,0,0,3.678-16.183c-2.942,1.839-6.253,2.942-9.195,4.414l-12.137,5.517A38.929,38.929,0,0,1,358.711,423.653Z" transform="translate(-120.514 125.469)" fill="#431715"/>
      <path id="Path_414" data-name="Path 414" d="M410.909,467.831c3.31-19.125,6.253-38.251,9.195-57.376,1.471-8.827,2.942-18.022,4.046-26.849-4.414,2.575-9.931,3.678-15.08,4.781-4.414,1.1-8.459,1.839-12.873,3.678s-8.459,4.046-12.873,5.885c-8.827,3.31-17.654,1.471-26.481-.736-9.195-2.575-18.022-4.414-27.585-3.31-17.286,1.839-35.309,7.724-52.6,1.1-7.724-2.942-14.344-7.724-22.068-11.4-9.563-4.781-19.493-4.046-30.159-4.414-7.724-.368-15.08-1.839-20.964-6.62-.368-.368-1.1-.736-1.471-1.471a71.409,71.409,0,0,1,.736,8.827c1.471,19.861,1.1,40.09,1.839,59.951.368,4.781.368,9.931,1.1,14.712,2.575,1.839,4.046,5.149,6.253,7.724a42.283,42.283,0,0,0,8.459,7.724c7.356,5.149,15.448,6.988,24.275,7.356,7.356.736,15.08,1.1,22.436,3.31,6.62,2.207,12.873,5.517,19.493,8.092s13.609,4.414,20.964,2.575c6.988-1.839,12.873-5.885,19.125-8.827,5.885-2.575,11.4-4.046,18.022-3.31,6.988.736,13.609,3.678,20.6,5.149,8.091,1.839,15.447-.368,23.171-4.046,6.988-3.31,14.344-8.092,22.068-9.195C410.541,470.406,410.909,468.934,410.909,467.831Z" transform="translate(-124.531 59.591)" fill="#be9a7c"/>
      <path id="Path_415" data-name="Path 415" d="M227.771,376.917c29.056,13.609,62.158,18.39,93.788,19.861,33.47,1.471,67.675-1.1,100.777-5.517,31.631-4.414,64-11.77,92.317-27.585a83.584,83.584,0,0,0,25.378-21.332,58.678,58.678,0,0,1,3.678-8.459,52.559,52.559,0,0,1,5.149-7.356c2.207-7.356,2.207-16.183-3.31-20.229a24.725,24.725,0,0,1-1.471,8.827c-4.781,16.183-17.654,29.792-31.631,38.987-14.712,9.563-32,13.241-48.917,17.286-18.022,4.414-36.412,9.563-54.8,12.873-18.022,3.31-36.044,3.31-54.066,2.942-18.39-.368-36.78-1.471-54.434-4.781A335.249,335.249,0,0,1,248,367.722c-15.448-5.517-30.895-11.77-43.032-22.8-9.563-8.459-16.919-19.861-18.39-32.734-8.091,10.666-1.839,26.481,5.149,36.78C200.186,361.47,213.794,370.665,227.771,376.917Z" transform="translate(-176.048 -113.942)" fill="#d8dada"/>
      <path id="Path_416" data-name="Path 416" d="M495.84,323.8c-30.159,16.551-64.365,23.907-98.2,27.953-37.148,4.781-75.031,6.988-112.178,3.31-32.366-2.942-67.307-9.931-95.26-27.953,1.839,3.678,2.942,7.724,4.414,11.4,1.839,5.149,3.678,10.3,5.517,15.815a23.786,23.786,0,0,1,1.471,4.781c6.988,7.356,12.873,16.183,22.436,20.229,5.149,2.207,10.666,2.575,15.815,3.678A124.158,124.158,0,0,1,255.3,387.8c8.827,3.31,17.654,6.988,26.481,9.563,10.666,2.942,20.964,2.207,32,.368,9.931-1.839,19.493-3.31,29.056-1.471,10.3,1.839,20.229,6.62,30.527,8.092a61.574,61.574,0,0,0,30.527-2.575c9.931-3.31,18.39-9.563,27.953-12.873,9.563-3.678,19.861-4.046,29.792-6.62a52.757,52.757,0,0,0,12.505-5.149,70.709,70.709,0,0,0,6.253-4.781C484.806,355.8,489.587,339.615,495.84,323.8Z" transform="translate(-156.131 -67.077)" fill="#be9a7c"/>
      <path id="Path_417" data-name="Path 417" d="M218.194,485.755c13.608,7.356,29.056,12.137,43.768,16.551,15.815,4.781,32,8.459,48.549,9.931,16.183,1.839,32.366,1.839,48.917,1.839,16.919,0,33.47-1.1,50.021-4.781,16.183-3.678,32-7.724,48.182-11.4,15.448-3.678,30.895-6.62,44.5-15.08,11.77-6.988,22.8-18.39,27.953-31.263,4.046-9.931,2.942-22.068-4.046-29.792l-2.207,4.414c-10.666,19.493-31.263,36.412-53.7,39.722-2.207.368-4.414-2.942-1.839-4.046,20.229-10.3,41.561-23.539,50.388-45.239a1.409,1.409,0,0,1,.736-2.207,27.566,27.566,0,0,0,1.839-5.885c2.942-12.873-.736-25.746-9.563-35.677-4.414-5.149-9.931-8.827-15.815-12.137-3.678-2.207-8.459-3.678-12.137-6.253a6.819,6.819,0,0,1,.736,2.575c4.046,13.976,0,27.953-6.62,40.09a133.757,133.757,0,0,1-11.034,16.919c-1.839,2.575-4.046,5.149-6.988,6.62-2.575,1.471-5.517,1.839-8.459,2.942a1.117,1.117,0,0,1-1.1-1.839c1.839-2.207,2.942-5.149,4.781-7.356l5.517-6.62a94.356,94.356,0,0,0,9.563-15.08c5.885-11.034,8.827-22.436,5.885-34.573-5.885-23.907-26.849-36.044-47.814-44.871.736,3.678,1.1,7.356,1.471,10.666.736,10.666,0,22.436-6.62,31.263-.736,1.1-2.942,1.1-2.942-.736.368-11.034,2.942-21.332,2.207-32.366a73.11,73.11,0,0,0-9.931-30.159,70.678,70.678,0,0,0-39.722-31.631,89.221,89.221,0,0,0-31.263-4.046,65.108,65.108,0,0,0-8.459.368c-1.1,0-1.839.368-2.942.368-2.207,0-1.471-.368-1.471.736,0,1.839,1.471,4.046,2.207,5.517a44.86,44.86,0,0,1,2.575,6.253c3.678,8.459,6.62,17.287,6.988,26.849s-2.942,17.287-8.092,25.01c-5.517,8.092-7.724,18.022-3.31,27.217,3.678,8.092,11.034,12.505,18.758,16.183a1.58,1.58,0,0,1-.736,2.942c-9.931,0-18.758-7.356-23.171-15.815a31.809,31.809,0,0,1-1.471-23.907c-7.356,3.678-16.183,4.781-23.539,7.356a68.358,68.358,0,0,0-29.424,20.229,57.288,57.288,0,0,0-9.195,15.815c-1.839,5.149-3.678,12.137-2.207,17.654,1.471,5.885,8.459,10.666,13.241,14.344s11.034,6.988,15.08,11.4c.736.736.368,2.575-1.1,2.207-6.253-.368-12.137-4.046-16.919-7.724a67.974,67.974,0,0,1-13.608-11.77,18,18,0,0,1-4.046-10.3l-5.517,1.1c-3.678.736-6.988,1.839-10.666,2.942A95.361,95.361,0,0,0,200.173,412.2c0,.736,0,1.839-1.1,2.207-12.137,8.092-16.551,23.907-12.505,37.515C191.345,467,204.218,478.4,218.194,485.755Z" transform="translate(-169.782 -248.158)" fill="#be9a7c"/>
      <path id="Path_418" data-name="Path 418" d="M602.665,511.458a72.54,72.54,0,0,0-42.3,5.149,65.01,65.01,0,0,0-21.7,15.448,403.543,403.543,0,0,1,13.241-42.3c1.471-3.678,3.31-7.724,4.781-11.4s2.207-7.356,3.678-11.4A3.021,3.021,0,0,0,560,464.38a25.326,25.326,0,0,0-.736-12.873c-1.471-5.149-4.781-9.563-9.563-11.034-1.1-7.724-4.781-14.712-11.4-18.39,2.575-7.724,3.678-15.815,2.207-23.907-1.839-10.666-8.092-19.861-16.183-27.217a68.557,68.557,0,0,0-16.183-10.666c-4.414-2.207-10.3-5.149-15.448-5.149-9.563-21.7-32-36.044-54.8-40.826a64.068,64.068,0,0,0-6.253-16.551,79.172,79.172,0,0,0-43.032-37.883c-11.034-4.046-22.8-5.517-34.205-5.885a108.638,108.638,0,0,0-15.448.736c-4.414.368-6.988,2.942-6.988,7.724.368,4.414,3.31,8.827,4.781,12.505a92.191,92.191,0,0,1,5.885,16.919c1.1,5.149,1.839,10.666,1.1,15.815-1.1,5.885-4.414,10.3-7.356,15.448a.36.36,0,0,1-.368.368c-9.195,2.942-18.39,5.149-27.217,8.092a80.268,80.268,0,0,0-27.217,15.448A65.9,65.9,0,0,0,263.923,372.8a45.075,45.075,0,0,0-2.942,12.137h-1.1c-1.839,0-3.678.736-5.517,1.1a58.235,58.235,0,0,0-11.4,3.31,80.53,80.53,0,0,0-21.7,11.034A80.08,80.08,0,0,0,203.6,416.2c-2.207,2.575-4.414,5.149-6.253,7.724-.368.368-.368.736-.736,1.1a.36.36,0,0,1-.368.368c-1.1,1.839-3.31,4.781-3.678,7.724a35.309,35.309,0,0,0-2.207,12.137H190c-11.034,8.092-10.666,23.539-5.885,34.941a47.865,47.865,0,0,0,2.942,6.253c8.459,30.9,17.286,61.79,24.275,92.685,7.724,33.47,13.976,67.675,18.39,101.88,4.781,34.573,7.724,69.146,9.195,103.719.736,15.448.736,31.263,8.459,45.239,6.253,11.77,17.286,20.965,28.688,27.953C302.91,873.739,334.908,880.36,365.8,881.1a271.066,271.066,0,0,0,45.607-2.575c13.241-1.839,26.849-5.149,38.619-11.4,12.137-6.253,22.436-15.815,28.688-27.953,6.988-13.609,9.195-29.056,11.4-44.136.736-4.046,1.471-8.459,1.839-12.505,10.3-4.046,15.448-18.39,20.6-26.849,7.724-12.873,20.229-21.332,33.1-28.688,13.976-7.724,28.688-14.344,41.561-23.907A186.01,186.01,0,0,0,624,667.773c20.965-26.481,36.78-59.951,31.631-94.524C651.95,544.56,632.089,517.343,602.665,511.458Zm-392.44-91.949a3.179,3.179,0,0,0,1.1-2.207A102.493,102.493,0,0,1,225.3,406.268a86.08,86.08,0,0,1,20.229-9.931A90.268,90.268,0,0,1,256.2,393.4l5.517-1.1a18,18,0,0,0,4.046,10.3c3.678,4.414,8.827,8.092,13.609,11.77s10.666,6.988,16.919,7.724c1.1,0,1.839-1.471,1.1-2.207-4.046-4.414-9.931-7.724-15.08-11.4-4.781-3.31-11.77-8.092-13.241-14.344-1.471-5.517.368-12.505,2.207-17.654a42.635,42.635,0,0,1,9.195-15.815A68.359,68.359,0,0,1,309.9,340.433c7.724-2.942,16.183-4.046,23.539-7.356a31.809,31.809,0,0,0,1.471,23.907c4.046,8.827,13.241,15.815,23.171,15.815a1.58,1.58,0,0,0,.736-2.942c-7.724-3.678-15.08-8.092-18.758-16.183-4.414-9.195-2.207-19.126,3.31-27.217,5.149-7.724,8.459-15.448,8.091-25.01-.368-9.195-3.31-18.39-6.988-26.849-.736-2.207-1.839-4.046-2.575-6.253-.736-1.471-2.207-3.678-2.207-5.517,0-1.1-.736-.736,1.471-.736a9.139,9.139,0,0,0,2.942-.368,65.109,65.109,0,0,1,8.459-.368c10.666,0,20.964.736,31.263,4.046a70.678,70.678,0,0,1,39.722,31.631,73.11,73.11,0,0,1,9.931,30.159c1.1,11.034-1.839,21.7-2.207,32.366,0,1.839,2.207,1.839,2.942.736,6.62-8.827,7.356-20.6,6.62-31.263a93.25,93.25,0,0,0-1.471-10.666c20.965,8.827,42.3,21.332,47.814,44.871,2.942,12.137,0,23.539-5.885,34.573-2.942,5.149-5.885,10.666-9.563,15.08l-5.517,6.62c-1.839,2.207-2.942,5.149-4.781,7.356a1.117,1.117,0,0,0,1.1,1.839c2.942-.736,5.885-1.1,8.459-2.942a29.9,29.9,0,0,0,6.988-6.62c4.414-5.149,7.724-11.034,11.034-16.919,6.62-12.505,10.3-26.114,6.62-40.09-.368-.736-.368-1.839-.736-2.575,3.678,2.207,8.459,4.046,12.137,6.253a72.389,72.389,0,0,1,15.815,12.137c8.827,9.563,12.873,22.8,9.563,35.676a27.563,27.563,0,0,1-1.839,5.885,1.282,1.282,0,0,0-.736,2.207c-8.827,21.7-30.16,34.941-50.388,45.239-2.575,1.1-.736,4.414,1.839,4.046,22.436-3.31,43.032-20.229,53.7-39.722l2.207-4.414c7.356,7.724,8.092,20.229,4.046,29.792-5.149,12.873-16.183,24.275-27.953,31.263-13.609,8.092-29.424,11.4-44.5,15.08-16.183,3.678-32,7.724-48.182,11.4-16.551,3.678-33.1,4.781-50.021,4.781-16.183,0-32.734,0-48.917-1.839a307.1,307.1,0,0,1-48.549-9.931c-14.712-4.414-30.159-9.195-43.768-16.551-13.976-7.356-26.849-18.758-31.631-34.205A34.1,34.1,0,0,1,210.224,419.509ZM191.1,452.243c1.471,12.873,9.195,24.275,18.39,32.734,12.137,11.034,27.585,17.286,43.032,22.8,16.919,5.885,34.205,11.4,52.227,14.712s36.412,4.414,54.434,4.781,36.412.368,54.066-2.942c18.39-3.31,36.78-8.459,54.8-12.873,16.919-4.046,34.205-7.356,48.917-17.286,13.976-9.195,26.849-22.8,31.631-38.987a73.622,73.622,0,0,0,1.471-8.827c5.517,4.414,5.517,12.873,3.31,20.229a52.559,52.559,0,0,0-5.149,7.356,58.684,58.684,0,0,0-3.678,8.459c-6.988,8.827-15.448,15.448-25.378,21.332-27.953,16.183-60.319,23.171-92.317,27.585-33.47,4.414-67.307,6.988-100.777,5.517-31.631-1.471-64.732-6.62-93.788-19.861-13.976-6.62-27.585-15.448-36.78-28.32C188.892,478.725,182.64,462.909,191.1,452.243Zm253.781,342.42c-7.356,3.31-14.712,5.885-23.171,4.046-6.988-1.471-13.609-4.414-20.6-5.149-6.253-.736-12.137.736-18.022,3.31-6.253,2.942-12.505,6.988-19.125,8.827-6.988,1.839-14.344,0-20.964-2.575s-12.505-5.885-19.493-8.092c-7.356-2.575-14.712-2.942-22.436-3.31-8.827-.736-16.919-2.575-24.275-7.356a42.285,42.285,0,0,1-8.459-7.724c-2.207-2.575-3.678-5.517-6.253-7.724-.368-4.781-.736-9.931-1.1-14.712-.736-19.861-.368-40.09-1.839-59.951-.368-2.942-.368-5.885-.736-8.827.368.368,1.1.736,1.471,1.471,6.253,4.781,13.609,6.253,20.964,6.62,10.3.368,20.229-.368,30.159,4.414,7.356,3.678,14.344,8.459,22.068,11.4,16.919,6.62,34.941.736,52.6-1.1,9.93-1.1,18.39.736,27.585,3.31,8.827,2.575,17.654,4.046,26.481.736,4.414-1.471,8.459-4.046,12.873-5.885a51.642,51.642,0,0,1,12.873-3.678c5.149-1.1,10.666-2.207,15.08-4.781-1.471,8.827-2.942,18.022-4.046,26.849-2.942,19.126-5.885,38.251-9.195,57.376-.368,1.471-.368,2.575-.736,4.046C459.224,786.571,451.868,791.353,444.879,794.663Zm20.964-3.31a79.536,79.536,0,0,1-3.678,16.183c-2.942,8.092-8.459,15.08-14.712,20.965-23.171,21.332-56.273,27.585-86.8,26.481-34.941-1.471-79.077-12.505-90.478-50.388,0-.368-.368-.736-.736-1.1-.368-1.839-1.1-3.678-1.471-5.149a115.79,115.79,0,0,1-3.31-15.448l-1.1-7.724a28.737,28.737,0,0,0,7.724,8.459,38.207,38.207,0,0,0,16.919,9.195c8.091,2.207,16.919,2.207,25.01,3.31s15.448,4.781,22.8,8.092c6.253,2.942,12.873,5.517,19.861,6.253,6.62.368,13.241-1.839,19.125-4.781,6.62-2.942,13.241-7.356,20.6-7.724,8.092-.368,15.448,3.31,23.171,5.149,8.827,2.207,16.919,1.839,25.378-1.839l12.137-5.517A57.632,57.632,0,0,0,465.844,791.353Zm-2.575-96.363c-7.356,1.471-13.609,4.414-20.229,7.724a31.9,31.9,0,0,1-11.4,3.678,47.627,47.627,0,0,1-14.344-1.471c-8.092-1.839-15.815-4.046-23.907-4.046-16.551,0-32.734,6.62-49.285,4.781-16.183-2.207-27.953-15.448-43.768-17.286-9.563-1.1-19.493.736-28.688-1.839-3.678-1.1-7.724-2.942-10.3-5.885a10.431,10.431,0,0,1-2.942-4.046c-4.046-34.573-12.137-68.778-22.436-101.88-1.839-6.253-4.046-12.505-5.885-19.125a47.941,47.941,0,0,0,11.4,11.4c8.459,5.885,18.758,6.253,28.32,9.195,19.493,6.253,37.515,17.654,58.848,15.815,11.4-1.1,22.436-4.781,33.837-4.046s21.7,6.253,32.734,8.459a72.931,72.931,0,0,0,30.895-.368c10.3-2.575,19.125-8.092,29.056-12.505,11.4-5.517,24.275-5.517,36.412-9.195a41.94,41.94,0,0,0,12.505-5.517c-2.942,13.976-5.885,27.953-8.459,41.929-4.781,25.01-8.827,50.388-12.873,75.766-.368,0-.736.368-1.1.736C476.142,692.047,470.258,693.518,463.269,694.99Zm36.044-130.936a37.469,37.469,0,0,1-12.505,5.149c-9.931,2.575-20.229,3.31-29.792,6.62-9.563,3.678-18.022,9.563-27.953,12.873a66.138,66.138,0,0,1-30.527,2.575c-10.3-1.839-20.229-6.253-30.527-8.092-9.93-1.839-19.493-.368-29.056,1.471-11.034,1.839-20.964,2.575-32-.368-9.195-2.575-17.654-6.253-26.481-9.563a124.154,124.154,0,0,0-15.448-4.781c-5.149-1.1-11.034-1.839-15.815-3.678-9.931-4.046-15.815-12.505-22.436-20.229-.368-1.471-1.1-3.31-1.471-4.781-1.839-5.149-3.678-10.666-5.517-15.815a104.787,104.787,0,0,0-4.414-11.4c27.585,18.022,62.893,25.01,95.26,27.953,37.515,3.678,75.031,1.1,112.178-3.31,33.837-4.046,68.41-11.4,98.2-27.953a370.849,370.849,0,0,0-15.08,48.549A74.565,74.565,0,0,1,499.314,564.054Zm-11.4,191.623c-1.1,6.988-1.839,13.609-3.678,20.229-2.575,9.195-2.575,20.229-4.046,30.159-2.575,14.344-5.885,29.056-15.815,40.09C446.351,866.383,415.823,870.8,390.445,873c-31.263,2.207-62.893-.736-92.317-12.137-12.873-5.149-26.114-12.137-36.044-22.436-11.034-11.4-14.344-26.114-15.448-41.561-1.839-33.1-3.678-66.2-7.724-99.305-8.092-66.2-21.7-131.672-41.929-195.3a36.153,36.153,0,0,1-1.839-5.885,92.834,92.834,0,0,0,16.551,15.08c0,4.414,1.471,8.459,2.575,12.505,1.471,5.149,3.31,10.666,4.781,15.815,2.942,9.563,5.885,19.125,8.827,29.056,5.885,19.861,11.4,39.722,15.815,59.951a490.987,490.987,0,0,1,9.563,61.79c1.471,19.861,1.1,40.09,2.207,59.951a235.235,235.235,0,0,0,2.942,32.366,115.794,115.794,0,0,0,3.31,15.448c1.471,5.149,2.575,9.931,6.253,13.976a.36.36,0,0,1,.368.368c10.666,29.424,44.5,41.929,73.56,45.975,31.263,4.414,65.468,2.207,93.421-13.976,13.241-7.724,26.114-18.758,32.366-33.1,3.678-8.827,4.781-18.758,6.253-27.953,1.839-9.931,3.31-20.229,4.781-30.159,6.253-40.09,12.137-79.812,19.125-119.534,7.356-43.4,15.815-86.432,31.631-127.994a86.2,86.2,0,0,0,9.931-7.356c-1.1,2.942-1.839,5.885-2.942,8.827-4.781,15.08-8.459,30.527-11.77,45.975-6.988,33.1-12.505,66.2-18.758,99.305C499.314,686.9,493.061,721.471,487.912,755.676ZM528,587.593c13.241-13.609,28.32-26.482,48.549-25.01,18.39,1.1,31.263,16.183,32.366,34.205s-8.827,34.941-22.068,46.71c-14.712,13.241-33.1,20.6-50.756,28.688-8.827,4.046-19.126,9.195-27.585,16.183,5.885-33.47,12.137-66.571,18.39-99.673Q527.45,587.593,528,587.593Zm90.846,72.456a176.455,176.455,0,0,1-33.837,32.366c-12.137,8.827-25.378,15.448-38.619,22.436-13.976,7.356-27.953,15.815-37.883,28.688-4.414,5.885-7.356,12.137-11.034,18.39-.736,1.1-1.1,1.839-1.839,2.942,2.942-18.758,6.253-37.883,9.563-56.641a62.881,62.881,0,0,1,15.815-16.919,156.971,156.971,0,0,1,24.642-12.873c19.493-8.459,39.354-17.654,54.066-33.837,13.241-14.344,21.332-33.47,17.654-52.963-3.678-18.758-17.654-33.837-36.78-36.044-19.861-2.207-38.987,8.459-51.492,23.539,2.207-11.77,4.414-23.171,6.988-34.941,6.988-8.459,14.712-15.815,24.642-20.6a63.058,63.058,0,0,1,34.941-5.885c28.688,2.942,46.71,27.217,51.859,54.066C652.685,603.408,637.973,635.774,618.848,660.049Z" transform="translate(-180.937 -254)" fill="#431715"/>
      <path id="Path_419" data-name="Path 419" d="M338.536,347.127c-1.471-2.942-4.414-5.149-6.988-6.988a34.933,34.933,0,0,0-6.253-3.678c-1.1-.736-2.207-1.1-3.31-1.839a1.284,1.284,0,0,0-.736-.368c-.368-.368-.736-.368-.736-.736a24.017,24.017,0,0,0-17.654-5.885c-3.31.368-7.356.736-10.3,2.575s-5.885,5.885-4.046,9.563c2.942,5.149,9.563,5.885,14.712,5.885H304.7c.368,0,.736.368,1.1.368a.36.36,0,0,1,.368.368l.368.368a39.089,39.089,0,0,0,4.046,3.31c3.31,2.575,6.988,4.046,10.3,6.253.368.368.736.368,1.1.736a.36.36,0,0,1,.368.368c.736.736,1.839,1.839,2.207,1.839a20.445,20.445,0,0,0,6.253,3.31c2.575,1.1,6.988-.736,8.092-3.31a11.979,11.979,0,0,0-.368-12.138Z" transform="translate(105.627 -56.934)" fill="#fff"/>
      <g id="Group_24" data-name="Group 24" transform="translate(443.796 317.625)">
        <path id="Path_420" data-name="Path 420" d="M315.208,348.6a8.384,8.384,0,0,0-1.1-4.046c-.368-.368-.368-.736-.736-1.1s-.736-1.1-1.1-1.471c-.736-.736-1.1-1.1-1.839-1.1-1.1-.368-1.839-.736-2.942-.368-1.1,0-1.839.736-2.942,1.471a8.008,8.008,0,0,0-1.839,2.942c0,.368-.368.736-.368,1.1-.368,1.471-.368,2.942-.736,4.414a3.316,3.316,0,0,1,.368-1.839,7.555,7.555,0,0,0,0,4.046c0,.368,0,.736.368.736.368.736.368,1.1.736,1.839v.368a1.911,1.911,0,0,0,.736,1.471.36.36,0,0,0,.368.368l.736.736v.368a1.852,1.852,0,0,0,2.942,1.1.36.36,0,0,0,.368-.368c.736,0,1.1-.368,1.839-.368a.36.36,0,0,0,.368-.368,4.431,4.431,0,0,0,1.839-1.839h0l1.471-1.471c.368-.368.368-.736.736-1.1a6.383,6.383,0,0,0,1.1-5.149C315.208,349.338,315.208,348.97,315.208,348.6Z" transform="translate(-301.6 -340.359)" fill="#fff"/>
        <path id="Path_421" data-name="Path 421" d="M303.8,340.4c.368,0,.368.368.736.368h0A1.139,1.139,0,0,1,303.8,340.4Z" transform="translate(-295.708 -340.248)" fill="#fff"/>
        <path id="Path_422" data-name="Path 422" d="M304.3,340.5h0a.36.36,0,0,1,.368.368A.36.36,0,0,1,304.3,340.5Z" transform="translate(-295.106 -339.98)" fill="#fff"/>
      </g>
      <g id="Group_25" data-name="Group 25" transform="translate(15.689 7.356)">
        <path id="Path_423" data-name="Path 423" d="M529.452,352.316c4.046-9.931,2.942-22.068-4.046-29.792l-2.207,4.414c-10.666,19.493-31.263,36.412-53.7,39.722-2.207.368-4.414-2.942-1.839-4.046,20.229-10.3,41.561-23.539,50.388-45.239a1.409,1.409,0,0,1,.736-2.207,27.561,27.561,0,0,0,1.839-5.885c1.471-5.517,1.1-11.034.368-16.183a148.638,148.638,0,0,1-88.639,77.238c-19.861,6.253-40.826,8.092-61.422,9.563-23.907,1.839-47.814,2.942-71.353-.368-23.539-3.678-47.078-12.137-64.365-28.688-12.505-11.77-21.7-26.849-34.573-38.251l-.368.368c0,.736,0,1.839-1.1,2.207-12.137,8.092-16.551,23.907-12.505,37.515,4.414,15.448,17.654,26.849,31.631,34.205,13.609,7.356,29.056,12.137,43.768,16.551,15.815,4.781,32,8.459,48.549,9.931,16.183,1.839,32.366,1.839,48.917,1.839,16.919,0,33.47-1.1,50.021-4.781,16.183-3.678,32-7.724,48.182-11.4,15.448-3.678,30.9-6.62,44.5-15.08C513.269,376.59,524.3,365.188,529.452,352.316Z" transform="translate(-185.203 -156.647)" fill="#9c8067"/>
        <path id="Path_424" data-name="Path 424" d="M306.82,357.212c-1.839,2.575-4.046,5.149-6.988,6.62-2.575,1.471-5.517,1.839-8.459,2.942a1.117,1.117,0,0,1-1.1-1.839c1.839-2.207,2.942-5.149,4.781-7.356l5.517-6.62a94.352,94.352,0,0,0,9.563-15.08c5.885-11.034,8.827-22.436,5.885-34.573-2.207-9.931-7.356-17.654-13.609-23.907,2.575,22.068-3.31,44.871-16.919,62.526-10.3,12.873-23.907,22.436-35.309,34.205-3.678,3.678-6.988,9.195-4.414,13.609,2.207,3.31,6.62,3.678,10.666,3.31,20.6-.736,43.032-4.046,57.009-19.493,16.919-18.758,14.712-46.343,12.873-72.456a9.219,9.219,0,0,1-2.575-1.471,6.818,6.818,0,0,1,.736,2.575c4.046,13.976,0,27.953-6.62,40.09A95.13,95.13,0,0,1,306.82,357.212Z" transform="translate(-25.464 -198.691)" fill="#9c8067"/>
        <path id="Path_425" data-name="Path 425" d="M236.337,256a65.108,65.108,0,0,0-8.459.368c-1.1,0-1.839.368-2.942.368H224.2c40.458,13.976,68.043,59.951,59.215,102.248-.736,3.678-1.839,7.356-.736,10.666,1.839,7.724,12.137,11.4,19.493,8.827,7.724-2.575,13.241-9.195,17.654-15.815,6.988-9.931,12.873-22.068,9.931-33.47-1.471-5.149-4.781-10.666-5.885-15.815h-.368c.736,3.678,1.1,7.356,1.471,10.666.736,10.666,0,22.436-6.62,31.263-.736,1.1-2.942,1.1-2.942-.736.368-11.034,2.942-21.332,2.207-32.366a73.11,73.11,0,0,0-9.93-30.159,70.678,70.678,0,0,0-39.722-31.631C257.67,257.1,247,256,236.337,256Z" transform="translate(-80.769 -256)" fill="#9c8067"/>
      </g>
      <g id="Group_26" data-name="Group 26" transform="translate(64.964 78.341)">
        <path id="Path_426" data-name="Path 426" d="M264.8,331.858c.368-5.517-3.678-10.3-8.459-12.505-3.31-1.839-6.988-2.575-10.666-4.046,1.471,1.1,2.942,2.575,4.414,3.678.736.736.368,2.575-1.1,2.207-6.253-.368-12.137-4.046-16.919-7.724a67.976,67.976,0,0,1-13.609-11.77,18,18,0,0,1-4.046-10.3l-5.517,1.1a84.156,84.156,0,0,0-10.3,2.942c3.678,22.8,22.8,43.4,45.975,46.343C252.666,343.259,263.7,340.317,264.8,331.858Z" transform="translate(-198.6 -232.185)" fill="#9c8067"/>
        <path id="Path_427" data-name="Path 427" d="M262.139,314.654a1.139,1.139,0,0,1-.736.368c-9.931,0-18.758-7.356-23.171-15.815a31.809,31.809,0,0,1-1.471-23.907c-6.253,2.942-13.241,4.414-19.861,6.253.368,6.253,0,12.873,1.1,19.126,2.942,15.08,16.551,27.585,32,29.056,4.414.368,9.195,0,13.241-2.575,3.678-2.575,6.253-7.724,4.414-11.77A28.382,28.382,0,0,1,262.139,314.654Z" transform="translate(-149.593 -275.3)" fill="#9c8067"/>
      </g>
      <path id="Path_428" data-name="Path 428" d="M250.2,350.181c1.839,5.517,3.31,11.4,4.781,17.287a237.531,237.531,0,0,1,4.046,27.585c4.414-2.207,8.459-4.414,12.873-6.253,9.563-3.678,19.861-4.046,29.792-6.62a52.757,52.757,0,0,0,12.505-5.149,70.7,70.7,0,0,0,6.253-4.781,370.858,370.858,0,0,1,15.08-48.549C309.048,338.412,279.624,345.768,250.2,350.181Z" transform="translate(4.547 -67.345)" fill="#9c8067"/>
      <path id="Path_429" data-name="Path 429" d="M266.358,359.261a258.576,258.576,0,0,1-10.666,96.363,225.47,225.47,0,0,1-8.092,22.068,17.854,17.854,0,0,0,6.253,0c4.046-.368,7.724-2.207,11.4-3.678,6.62-3.31,12.873-6.253,20.229-7.724,6.988-1.471,12.873-3.31,18.022-8.459.368-.368.736-.736,1.1-.736,4.046-25.378,8.092-50.388,12.505-75.766,2.575-13.976,5.149-27.953,8.092-41.929a46.461,46.461,0,0,1-12.505,5.517c-12.137,3.678-25.01,4.046-36.412,9.195C272.61,356.319,269.3,357.79,266.358,359.261Z" transform="translate(-2.415 -25.301)" fill="#6c4a33"/>
      <path id="Path_430" data-name="Path 430" d="M363.16,476.012c8.091,1.839,15.447-.368,23.171-4.046,6.988-3.31,14.344-8.092,22.068-9.195.368-1.471.368-2.575.736-4.046,3.31-19.125,6.253-38.251,9.195-57.376,1.471-8.827,2.942-18.022,4.046-26.849-4.414,2.575-9.931,3.678-15.08,4.781-4.414,1.1-8.459,1.839-12.873,3.678s-8.459,4.046-12.873,5.885c-5.885,2.207-11.769,2.207-17.654,1.1A95.806,95.806,0,0,1,353.6,406.5c-16.551,20.964-41.561,34.205-68.043,37.515s-53.7-2.942-76.87-16.183a51.488,51.488,0,0,1-5.885-3.678,39.968,39.968,0,0,0,.368,6.62c.368,4.781.368,9.931,1.1,14.712,2.575,1.839,4.046,5.149,6.253,7.724a42.28,42.28,0,0,0,8.459,7.724c7.356,5.149,15.448,6.988,24.275,7.356,7.356.736,15.08,1.1,22.436,3.31,6.62,2.207,12.873,5.517,19.493,8.092s13.608,4.414,20.964,2.575c6.988-1.839,12.873-5.885,19.125-8.827,5.885-2.575,11.4-4.046,18.022-3.31C349.551,471.6,356.172,474.541,363.16,476.012Z" transform="translate(-122.389 68.696)" fill="#9c8067"/>
      <path id="Path_431" data-name="Path 431" d="M230.12,390.075a67.7,67.7,0,0,0-1.839-15.08,78.57,78.57,0,0,0-3.31-12.505c-1.839-5.517-4.414-11.034-9.563-13.976-4.046-2.207-9.195-1.1-11.4,2.942a17.086,17.086,0,0,0-2.207,8.459c0,1.839.368,4.046.368,5.885a57.821,57.821,0,0,0,1.471,8.459c0,1.1.368,1.839.368,2.942v-1.1a2.756,2.756,0,0,0,.368,1.839c.736,4.781,1.1,9.563,1.839,14.344s2.575,9.931,6.253,13.241a12.691,12.691,0,0,0,2.942,3.31,5.108,5.108,0,0,0,3.678,1.839c1.471,0,2.575-1.1,3.678-1.839,1.471-.736,2.207-2.207,2.942-3.678a14.711,14.711,0,0,0,3.678-6.62A32.932,32.932,0,0,0,230.12,390.075Z" transform="translate(-125.067 -3.887)" fill="#9b6748"/>
      <path id="Path_432" data-name="Path 432" d="M261.767,328.895a7.712,7.712,0,0,0-2.207-2.942l-1.839-1.839c-.368-.368-.368-.368-.736-.368.368.368,1.1.736.368,0-2.575-2.207-5.149-3.31-7.724-4.781-2.207-1.1-4.046-2.207-6.253-3.31-.368-.368-.736-.368-1.1-.736a16,16,0,0,0-2.575-2.207l-.368-.368c-.368-.368-.736-.736-.736-1.1l-2.207-3.31a47.117,47.117,0,0,1-4.046-7.356,77.852,77.852,0,0,1-4.046-7.724,33.579,33.579,0,0,0-5.517-8.459c-4.046-4.046-11.4-2.207-12.873,3.31-1.1,4.046-.736,8.459,0,12.505a44.921,44.921,0,0,0,2.207,9.563c2.207,7.356,5.149,14.712,10.3,20.964a40.66,40.66,0,0,0,16.919,11.4,29.727,29.727,0,0,0,9.931,1.839c1.1,0,2.575-.368,3.678-.368.736,0,1.839-.368,2.207-.368a12.429,12.429,0,0,0,4.414-2.207,7.446,7.446,0,0,0,5.149-4.781A9.67,9.67,0,0,0,261.767,328.895Z" transform="translate(-105.221 -178.466)" fill="#d6b092"/>
      <g id="Group_27" data-name="Group 27" transform="translate(166.68 154.843)">
        <path id="Path_433" data-name="Path 433" d="M230.3,296.5c.368.368.736.736,1.1.736h0C231.036,296.868,230.668,296.868,230.3,296.5Z" transform="translate(-215.425 -295.029)" fill="#d6b092"/>
        <path id="Path_434" data-name="Path 434" d="M244.809,303.088h0v-1.839a2.484,2.484,0,0,0-1.471-2.207c-.368-.368-.736-.736-1.1-.736a5.077,5.077,0,0,0-1.471-1.1,5.228,5.228,0,0,0-2.207-.736c-.368-.368-.736-.368-1.471-.368h-1.839a8.444,8.444,0,0,0-5.149,1.471,7.528,7.528,0,0,0-2.942,2.942,3.963,3.963,0,0,0-.736,2.942,7.847,7.847,0,0,0,0,2.942,7.112,7.112,0,0,0,1.839,3.31l.368.368c.368.368,1.1.736,1.471,1.1a6.214,6.214,0,0,0,1.839.736c.736,0,1.839.368,2.207.368h.736a6.257,6.257,0,0,0,2.575-.368c.736,0,1.471-.736,2.207-.736h.368a11.194,11.194,0,0,0,2.942-2.942C244.441,306.4,245.177,304.927,244.809,303.088Z" transform="translate(-226.256 -296.1)" fill="#d6b092"/>
        <path id="Path_435" data-name="Path 435" d="M230.6,296.7h0l.368.368A.36.36,0,0,1,230.6,296.7Z" transform="translate(-214.621 -294.493)" fill="#d6b092"/>
      </g>
      <path id="Path_436" data-name="Path 436" d="M243.309,274.352c-.368-1.1-.736-1.839-1.1-2.942a9.914,9.914,0,0,0-2.575-2.942,5.569,5.569,0,0,0-6.253.736,9.643,9.643,0,0,0-1.839,3.31c0,.736-.368,1.1-.368,1.839,0,.368-.368,1.1-.368,1.471a4.665,4.665,0,0,0-.368,2.207,18.632,18.632,0,0,0-.736,4.781v2.207a7.17,7.17,0,0,0,.368,2.942,6.955,6.955,0,0,0,4.414,5.149c2.575.736,5.149-.736,6.988-2.207,2.575-2.942,3.678-7.356,3.678-11.034C244.412,277.662,244.044,276.191,243.309,274.352Z" transform="translate(-50.351 -216.975)" fill="#d6b092"/>
      <path id="Path_437" data-name="Path 437" d="M291.529,336.45c0-3.678-4.781-6.253-8.092-7.356-7.356-4.414-16.919-3.31-25.01-3.678a104.892,104.892,0,0,1-23.907-4.046,53.1,53.1,0,0,1-17.654-8.827c-5.149-3.678-9.931-9.563-15.815-11.4a3.491,3.491,0,0,0-4.414,2.575c-2.575,7.356,3.678,16.551,8.459,21.7a68.09,68.09,0,0,0,20.6,14.712,99.927,99.927,0,0,0,29.056,7.724c9.195,1.1,21.332,2.575,29.424-2.942C287.483,342.7,291.529,340.128,291.529,336.45Z" transform="translate(-140.5 -128.276)" fill="#d6b092"/>
      <path id="Path_438" data-name="Path 438" d="M251.437,314.756a4.664,4.664,0,0,0-.368-2.207,6.542,6.542,0,0,0-2.575-2.942c-.368-.368-.736-.368-1.471-.736s-1.1-.736-1.839-.736a1.284,1.284,0,0,1-.736-.368,9.14,9.14,0,0,0-2.942-.368c-.736,0-1.471.368-2.207.368h-.368c-.368,0-.368,0-.736.368-.368,0-.736.368-1.1.368a2.788,2.788,0,0,0-1.471.736,12.9,12.9,0,0,0-2.942,1.839c-.368.368-1.1.736-1.471,1.1.368-.368,1.1-.736,1.471-1.1a6.46,6.46,0,0,0-1.839,1.471,5.971,5.971,0,0,0-1.839,3.31,5.1,5.1,0,0,0,0,3.31c.368.736.368,1.1.736,1.839,1.1,1.839,2.575,2.575,4.781,3.678a11.325,11.325,0,0,0,4.781,1.1c1.1,0,2.575-.368,3.678-.368h.736a10.553,10.553,0,0,0,4.046-2.207,8.176,8.176,0,0,0,2.942-4.781c.368-.368.368-1.1.736-1.471Z" transform="translate(-52.962 -110.996)" fill="#d6b092"/>
      <path id="Path_439" data-name="Path 439" d="M225.706,396.619a15.087,15.087,0,0,0-.368-4.046,5.228,5.228,0,0,0-.736-2.207,27.98,27.98,0,0,0-5.517-10.3,6.156,6.156,0,0,0-5.517-1.471,6.329,6.329,0,0,0-4.046,4.046,14.758,14.758,0,0,0-1.1,5.517c0,.736-.368,1.471,0,2.207,0,.736.368,1.471.368,2.575s.368,2.207.368,3.31a6.929,6.929,0,0,0,.736,2.942,15.369,15.369,0,0,0,1.471,3.678,10.431,10.431,0,0,0,3.678,3.31,8.089,8.089,0,0,0,5.149.736,7.713,7.713,0,0,0,4.046-2.942A12.667,12.667,0,0,0,225.706,396.619Z" transform="translate(-107.779 79.312)" fill="#d6b092"/>
      <path id="Path_440" data-name="Path 440" d="M214.544,337.221a16.534,16.534,0,0,0-2.207-4.414c-.368-.368-.736-.736-1.1-.736a4.672,4.672,0,0,0-2.575-1.471,3.142,3.142,0,0,0-2.575,0,5.227,5.227,0,0,0-2.207.736,6.244,6.244,0,0,0-2.207,2.207c-.368.736-.736,1.839-1.1,2.575v.736c0,.736-.368,1.471-.368,2.207a2.756,2.756,0,0,0,.368,1.839v.368c0,.368,0,.368.368.736a7.631,7.631,0,0,0,2.207,3.678l1.1,1.1a7.547,7.547,0,0,0,6.253,1.839,5.054,5.054,0,0,0,2.942-1.839,8.009,8.009,0,0,0,1.839-2.942c0-.368.368-.736.368-1.471A12.98,12.98,0,0,1,214.544,337.221Z" transform="translate(-129.352 -49.603)" fill="#d6b092"/>
      <path id="Path_441" data-name="Path 441" d="M230.056,340.318c0-1.1-1.1-1.839-1.839-2.207,0-.368-.368-.368-.368-.736a5.054,5.054,0,0,0-2.942-1.839c-.368,0-.736-.368-1.1-.368a4.665,4.665,0,0,0-2.207-.368h-.368a3.141,3.141,0,0,0-2.575,0,5.316,5.316,0,0,0-2.575.736c-.368,0-.368.368-.736.368a4.989,4.989,0,0,0-2.575,4.046c-.368,1.839.368,3.31,1.471,4.781l.736.736a7.746,7.746,0,0,0,4.781,1.839h2.207a10.457,10.457,0,0,0,4.414-1.471,5.8,5.8,0,0,0,2.575-2.575A3.049,3.049,0,0,0,230.056,340.318Z" transform="translate(-95.946 -38.356)" fill="#9c8067"/>
      <path id="Path_442" data-name="Path 442" d="M239.956,340.442a6.244,6.244,0,0,0-2.207-2.207,5.465,5.465,0,0,0-3.31-.736h-1.471a8.385,8.385,0,0,0-4.046,1.1,16.332,16.332,0,0,0-4.046,2.942,3.316,3.316,0,0,0-2.207,2.207,2.969,2.969,0,0,0,1.471,3.31h.368a4.443,4.443,0,0,0,2.575,2.575,6.214,6.214,0,0,0,3.678,1.1h1.471a6.257,6.257,0,0,0,2.575-.368,7.394,7.394,0,0,0,2.942-1.471,6.245,6.245,0,0,0,2.207-2.207,5.466,5.466,0,0,0,.736-3.31A3.962,3.962,0,0,0,239.956,340.442Z" transform="translate(-69.435 -30.389)" fill="#9c8067"/>
      <path id="Path_443" data-name="Path 443" d="M249.519,339.146a6.6,6.6,0,0,0-1.839-2.575.36.36,0,0,1,.368.368h-.736a.36.36,0,0,1-.368-.368c-.368,0-.368-.368-.736-.368l-1.471-.736a5.454,5.454,0,0,0-2.575-.368,13.068,13.068,0,0,0-3.678.736c-.368,0-.368.368-.736.368-2.942,1.471-3.678,6.253-1.1,8.459.736.368,1.1,1.1,1.839,1.471h0c.368.368,1.1.368,1.471.736a2.211,2.211,0,0,1,1.471.368h1.839a3.316,3.316,0,0,0,1.839-.368,8.04,8.04,0,0,0,1.839-1.1l1.1-1.1c0-.368.368-.368.368-.736C249.519,342.088,249.887,340.249,249.519,339.146Z" transform="translate(-35.965 -36.816)" fill="#9c8067"/>
      <path id="Path_444" data-name="Path 444" d="M237.692,384.446c-.368,0-.368-.368-.736-.368l-2.207-2.207a6.214,6.214,0,0,0-3.678-1.1,15.93,15.93,0,0,1-1.839-.368,12.512,12.512,0,0,0-3.678.368,17.945,17.945,0,0,0-2.575,1.1c-.736.736-1.471,1.1-1.839,1.839a7.353,7.353,0,0,0-.736,4.781,5.054,5.054,0,0,0,1.839,2.942,7.008,7.008,0,0,0,3.678,1.839,8.965,8.965,0,0,0,4.414,0,1.351,1.351,0,0,0,1.1-.368,11.688,11.688,0,0,0,3.31-1.1,12.48,12.48,0,0,0,2.207-2.207c.368,0,.368-.368.736-.368C239.9,388.859,239.9,385.917,237.692,384.446Z" transform="translate(-75.629 84.496)" fill="#9c8067"/>
      <path id="Path_445" data-name="Path 445" d="M248.176,388.049a2.244,2.244,0,0,0-1.1-2.575h0c.368,0,0,0-.368-.368a8.11,8.11,0,0,0-5.517-2.207c-1.1,0-1.839.368-2.942.368a8.768,8.768,0,0,0-4.046,2.207c-.736.736-1.471,1.1-2.207,1.839-2.207,2.207-2.575,5.149-.736,7.356.368.368.368.736,1.1.736,1.1,1.1,2.575,1.1,4.046,1.1,1.839,0,3.31.368,5.149-.368a17.385,17.385,0,0,0,4.414-2.575,7.518,7.518,0,0,0,1.839-3.31,3.316,3.316,0,0,0,.368-1.839v-.368Z" transform="translate(-49.334 91.191)" fill="#9c8067"/>
      <path id="Path_446" data-name="Path 446" d="M239.326,353.182a4.432,4.432,0,0,0-1.839-1.839h0l-.368-.368a4.389,4.389,0,0,0-3.31-1.839l-2.207-.368a11.339,11.339,0,0,0-3.678-.368,6.259,6.259,0,0,0-2.575.368c-.368,0-.736.368-1.1.368a5.928,5.928,0,0,0-2.575,1.471,4.493,4.493,0,0,0-1.471,3.31,7.17,7.17,0,0,0,.368,2.942,6.543,6.543,0,0,0,2.575,2.942,11.008,11.008,0,0,0,2.942,1.471,13.068,13.068,0,0,0,3.678.736H231.6a7.416,7.416,0,0,0,4.046-1.1c.368,0,.368-.368.736-.368s.736-.368,1.1-.736.736-.368,1.1-.736A5.062,5.062,0,0,0,239.326,353.182Z" transform="translate(-75.792 -1.199)" fill="#6c4a33"/>
      <g id="Group_28" data-name="Group 28" transform="translate(158.356 396.486)">
        <path id="Path_447" data-name="Path 447" d="M229.1,362.3Z" transform="translate(-210.314 -360.461)" fill="#6c4a33"/>
        <path id="Path_448" data-name="Path 448" d="M245.353,367.317v-1.1a2.023,2.023,0,0,0-1.1-1.839c-.368-.368-.736-.368-1.1-.736h0a9.628,9.628,0,0,0-6.253-1.839h-1.839a10.183,10.183,0,0,0-3.31.368c-1.1,0-1.839.368-2.575.368-2.207.736-5.517,3.31-5.149,6.253a6.214,6.214,0,0,0,1.1,3.678c.736,1.471,2.207,2.207,3.31,2.942,1.1.368,1.839.736,2.942,1.1h1.1a8.965,8.965,0,0,0,4.414,0,25.538,25.538,0,0,0,4.781-1.839,7.468,7.468,0,0,0,4.046-6.253v-.368C245.353,368.053,245.353,367.685,245.353,367.317Z" transform="translate(-223.992 -361.8)" fill="#6c4a33"/>
      </g>
      <path id="Path_449" data-name="Path 449" d="M246.412,361.785v-1.1c-.368-.368-.368-1.1-.736-1.471a4.431,4.431,0,0,0-1.839-1.839,1.911,1.911,0,0,0-1.471-.736,6.818,6.818,0,0,0-2.575-.736,7.1,7.1,0,0,0-3.678,1.1.36.36,0,0,0-.368.368,5.8,5.8,0,0,0-2.575,2.575v.368l-.368.368c-.368.368-.368,1.1-.736,1.471a3.316,3.316,0,0,1-.368,1.839,3.5,3.5,0,0,0,.736,2.575,1.911,1.911,0,0,0,.736,1.471l1.1,1.1a1.911,1.911,0,0,0,1.471.736,5.316,5.316,0,0,0,2.575.736h1.471a5.316,5.316,0,0,0,2.575-.736l1.471-1.1h0l.368-.368c.368-.368.736-1.1,1.1-1.471h0c.368-.368.368-1.1.736-1.471A15.236,15.236,0,0,0,246.412,361.785Z" transform="translate(-44.995 18.886)" fill="#6c4a33"/>
      <path id="Path_450" data-name="Path 450" d="M230.353,364.165l-1.1-1.1c-.368-.368-.368-.736-.736-.736-1.471-1.471-4.046-1.839-6.253-2.207-1.1,0-1.839-.368-2.942,0a9.643,9.643,0,0,0-3.31,1.839c-.736.736-1.471,1.1-2.207,1.839a2.069,2.069,0,0,0,0,3.31c.736.736,1.471,1.1,2.207,1.839a14.911,14.911,0,0,0,3.31,1.839,4.061,4.061,0,0,0,2.942,0c2.207-.368,4.781-.368,6.253-2.207l.736-.736,1.1-1.1A1.778,1.778,0,0,0,230.353,364.165Z" transform="translate(-95.14 29.747)" fill="#6c4a33"/>
      <path id="Path_451" data-name="Path 451" d="M259.154,355.965l-1.1-1.1c-.368-.368-.368-.736-.736-.736-1.471-1.471-4.046-1.839-6.253-2.207-1.1,0-1.839-.368-2.942,0a9.643,9.643,0,0,0-3.31,1.839c-.736.736-1.471,1.1-2.207,1.839a2.069,2.069,0,0,0,0,3.31c.736.736,1.471,1.1,2.207,1.839a14.911,14.911,0,0,0,3.31,1.839,4.061,4.061,0,0,0,2.942,0c2.207-.368,4.781-.368,6.253-2.207l.736-.736,1.1-1.1C259.889,358.172,259.889,357.068,259.154,355.965Z" transform="translate(-18.015 7.787)" fill="#6c4a33"/>
      <path id="Path_452" data-name="Path 452" d="M256.515,372.251a1.911,1.911,0,0,0-.736-1.471c0-.368-.368-.368-.736-.736a6.379,6.379,0,0,0-6.62-1.839,9.806,9.806,0,0,0-5.149,2.575,8.017,8.017,0,0,0-1.471,1.839c-.368.736-.736,1.1-.736,1.839v.736a2.211,2.211,0,0,1-.368,1.471,4.665,4.665,0,0,0,.368,2.207,3.889,3.889,0,0,0,2.207,2.575,10.429,10.429,0,0,0,4.781,1.471,6.214,6.214,0,0,0,3.678-1.1l.368-.368c.368-.368.736-.368,1.1-.736a8.593,8.593,0,0,0,2.575-2.575,5.933,5.933,0,0,0,1.1-3.31A5.455,5.455,0,0,0,256.515,372.251Z" transform="translate(-20.893 51.084)" fill="#6c4a33"/>
    </g>
    <path id="Path_453" data-name="Path 453" d="M213.48,439.819a4.665,4.665,0,0,0-.368-2.207c-.368-.368-.368-1.1-.736-1.471,0-.368-.368-.368-.368-.736v-.368c0-.368-.368-.736-.368-1.1-.368-.368-.368-.736-.736-1.1s-.736-1.1-1.1-1.471l-.736-.736c-.368-.368-1.1-.736-1.471-1.471-1.1-.736-1.839-1.471-2.942-2.207a1.351,1.351,0,0,0-1.1-.368h-.736c-1.1-.368-1.839-.736-2.942-.368a2.287,2.287,0,0,0-1.471,2.207,1.351,1.351,0,0,0,.368,1.1v.736h0v1.1a2.789,2.789,0,0,0,.736,1.471c.368.736.736,1.1.736,1.839a16.762,16.762,0,0,0,2.575,3.678l2.207,2.207c.368.368,1.1.736,1.471,1.1l2.207,1.1a4.665,4.665,0,0,0,2.207.368h0c1.1.368,1.471-.736,1.471-1.471C213.48,440.923,213.48,440.555,213.48,439.819Z" transform="translate(46.765 460.769)" fill="#431715"/>
  </g>
</svg>