<svg xmlns="http://www.w3.org/2000/svg" width="616.496" height="709.73" viewBox="0 0 616.496 709.73">
  <g id="OBJECTS" transform="translate(-171.619 -41.968)" opacity="0.35">
    <ellipse id="Ellipse_80" data-name="Ellipse 80" cx="280.36" cy="99.273" rx="280.36" ry="99.273" transform="translate(185.99 547.476)" fill="#976a4d"/>
    <g id="Group_15" data-name="Group 15" transform="translate(171.619 192.32)">
      <path id="Path_316" data-name="Path 316" d="M311.309,111.434c-14.467,5.487-23.447,20.453-28.435,34.421-4.49,11.474-16.961,32.925-3.991,42.9,10.975,7.982,28.934-2.993,36.916-9.478,5.986-5.487,9.977-12.472,13.469-19.456,3.492-7.483,6.984-15.964,7.982-24.444,1-7.483,0-16.462-5.986-21.451C325.776,108.441,317.794,108.94,311.309,111.434Z" transform="translate(233.351 77.601)" fill="none"/>
      <path id="Path_317" data-name="Path 317" d="M458.889,203.019a571.013,571.013,0,0,1-193.059-11.973A565.248,565.248,0,0,1,191,167.6a215.533,215.533,0,0,0,65.351,36.417c53.877,18.957,110.747,19.456,167.119,17.46,28.934-1,58.866-.5,86.8-8.481A105.292,105.292,0,0,0,542.2,197.532a135.922,135.922,0,0,0,12.472-11.474,15.157,15.157,0,0,0,2.494-3.492,31.768,31.768,0,0,1-3.492,1A515.723,515.723,0,0,1,458.889,203.019Z" transform="translate(-94.318 308.78)" fill="#edc89d"/>
      <path id="Path_318" data-name="Path 318" d="M657.053,156.053s-10.476,4.49-12.97,7.982c-1.5,1-3.492,2.494-4.989,3.492a139.948,139.948,0,0,0-15.465,14.467c-4.49,4.49-7.982,9.478-12.97,12.97-22.948,42.4-59.365,71.836-110.248,72.834H467.486c-21.451-.5-42.9-2-64.353-5.986a155.171,155.171,0,0,1-84.806-43.9C300.866,199.953,287.4,179,276.921,156.053l-2.494-5.487L268.44,135.6c-1.5.5-2.993,1.5-4.989,2-14.966,6.984-29.932,13.968-44.4,22.449-12.472,7.483-24.444,15.465-33.424,26.44-8.481,9.977-14.467,22.948-11.973,35.918s11.973,22.948,21.95,30.431c11.474,8.481,23.945,14.467,36.417,20.453,13.968,6.485,27.936,12.472,42.4,17.959a538.32,538.32,0,0,0,88.3,24.444,527.688,527.688,0,0,0,183.581,2,551.3,551.3,0,0,0,88.8-22.449c26.938-8.98,56.371-20.952,73.333-45.4,7.483-10.975,12.472-24.444,12.472-37.914,0-14.467-6.984-26.44-16.961-36.417-10.476-10.476-23.447-18.458-36.916-25.442C664.038,152.561,660.545,154.058,657.053,156.053Z" transform="translate(-165.772 181.144)" fill="#f5dfc3"/>
      <path id="Path_319" data-name="Path 319" d="M537.981,231.7c20.453-5.487,42.9-12.472,55.374-26.938,5.986-6.485,9.478-14.467,9.478-22.449,0-8.481-5.488-15.465-12.97-21.451-6.485-4.989-14.467-8.98-21.95-12.472-2.993,3.492-5.986,6.984-9.977,9.478-22.948,42.4-59.365,71.836-110.248,72.834H414.762c-21.451-.5-42.9-2-64.353-5.986a155.171,155.171,0,0,1-84.806-43.9A193.043,193.043,0,0,1,237.666,144.9c-5.488,2-10.975,4.49-16.462,6.984-9.478,4.49-18.458,8.98-25.442,15.465-6.485,5.986-10.975,13.469-8.979,21.451,2,7.483,8.979,13.469,16.462,17.959,8.481,4.989,18.458,8.481,27.936,11.973,10.476,3.991,21.451,7.483,32.426,10.476,21.95,6.485,44.4,10.975,67.346,14.467a520.136,520.136,0,0,0,139.182,1A429.243,429.243,0,0,0,537.981,231.7Z" transform="translate(-113.048 218.238)" fill="#edc89d"/>
      <path id="Path_320" data-name="Path 320" d="M275.532,381.447a153.163,153.163,0,0,0,36.916,24.444c16.462,7.483,33.923,10.476,51.383,12.472a542.9,542.9,0,0,0,56.87,2.993c9.478,0,19.456,0,28.934-.5,49.886-2,78.82-31.428,98.276-69.342a50.331,50.331,0,0,1,3.492-7.483c13.968-29.932,22.449-63.854,30.431-94.285,6.984-25.941,14.467-51.383,20.453-77.324a353.9,353.9,0,0,0,6.984-38.911,147.34,147.34,0,0,0,1-20.952,101.779,101.779,0,0,1-35.918,35.419c-14.966,8.481-31.927,13.968-48.888,17.959a443.778,443.778,0,0,1-57.369,9.478,476.907,476.907,0,0,1-119.228-1.5c-32.925-4.49-65.85-11.973-96.28-26.44a193.913,193.913,0,0,1-39.909-25.442,187.739,187.739,0,0,1-17.46-16.961c-2.494-2.993-5.488-6.485-7.982-9.977-.5,35.918,3.492,71.836,9.478,107.255C208.186,266.21,224.149,336.05,275.532,381.447Z" transform="translate(-109.508 19.605)" fill="#edc89d"/>
      <path id="Path_321" data-name="Path 321" d="M517.866,103.662c-12.97-3.492-26.938-4.989-40.408-7.483C427.572,88.2,376.688,83.208,326.3,88.2a356.207,356.207,0,0,0-72.834,14.966c-21.451,6.984-41.9,16.462-57.369,32.925,6.485,8.481,16.462,14.467,26.44,18.957a277.624,277.624,0,0,0,40.408,14.467c27.936,7.982,57.369,13.469,86.3,14.966s58.367,0,86.8-5.487a402.9,402.9,0,0,0,42.4-9.977c11.973-3.492,23.945-7.483,35.419-13.469,9.977-5.487,19.954-12.472,25.941-21.95l2.993-5.986C541.811,115.136,529.34,107.154,517.866,103.662Z" transform="translate(-73.976 -15.895)" fill="#903737"/>
      <path id="Path_322" data-name="Path 322" d="M189.994,172.125c3.492,6.984,8.979,12.97,14.467,18.458,44.9,46.893,115.237,60.362,177.595,63.854A505.967,505.967,0,0,0,495.3,248.95c32.426-5.487,68.843-12.97,93.287-35.918,21.95-20.453,32.426-54.875,13.469-80.317-8.979-11.973-21.95-20.453-35.419-26.939a282.211,282.211,0,0,0-48.39-17.959C484.821,78.339,449.9,74.348,414.981,73.85a476.888,476.888,0,0,0-53.378,1.5c-13.469,1-26.938,2.494-39.909,3.492a3.771,3.771,0,0,0-2,.5A400.093,400.093,0,0,0,266.32,93.305c-15.465,5.487-30.431,11.973-43.9,20.453-12.471,7.982-23.945,18.458-30.431,31.428-2,4.49-3.991,8.98-4.49,13.968h0v3.492A15.954,15.954,0,0,0,189.994,172.125Zm28.435-14.966c7.982-25.442,33.923-41.406,57.369-50.884A279.985,279.985,0,0,1,320.2,93.8,227.285,227.285,0,0,1,361.1,89.813c29.932-2,59.863-1,89.8,1.5,16.462,1.5,33.424,3.492,49.886,6.485,14.467,2.494,29.433,5.487,42.9,10.975,23.945,10.476,46.394,33.424,42.4,61.859-3.492,25.442-27.936,40.408-49.387,48.888-28.435,10.975-58.866,17.46-88.8,20.952a393.29,393.29,0,0,1-93.786-1,350.513,350.513,0,0,1-89.8-23.446C241.377,207.046,209.45,187.091,218.429,157.159Z" transform="translate(-108.278 -65.901)" fill="#f5dfc3"/>
      <path id="Path_323" data-name="Path 323" d="M226.713,143c12.472-6.984,25.941-11.973,39.41-15.964,50.884-15.964,105.759-17.46,158.638-12.97q40.408,3.741,80.816,10.476c11.973,2,25.442,3.492,35.419,10.975a39.7,39.7,0,0,1,9.977,10.476,42.77,42.77,0,0,0-2.494-13.469c-9.977-26.44-38.412-37.415-63.854-42.4a645.049,645.049,0,0,0-92.788-10.975c-51.882-2-110.248-2.993-157.141,21.451a90.559,90.559,0,0,0-28.934,22.449c-8.979,10.975-14.966,24.943-8.481,38.412a20.221,20.221,0,0,0,2.494,4.49C206.759,155.966,216.237,148.483,226.713,143Z" transform="translate(-80.145 -47.747)" fill="#edc89d"/>
      <path id="Path_324" data-name="Path 324" d="M374.846,105.364c-10.975-4.989-23.945-5.487-35.419-2.993-10.476,2.494-18.458,7.483-26.938,13.469a333.248,333.248,0,0,1-8.979,44.4c-6.984,27.437-14.467,54.376-21.95,81.314q-8.231,30.68-17.959,61.36a121.123,121.123,0,0,1,15.964-11.973c21.451-12.97,46.893-17.959,68.843-28.934,11.474-5.487,20.453-13.968,27.936-24.444,7.982-10.476,13.968-21.95,19.954-33.923,6.485-12.97,11.474-26.939,12.472-41.406C410.265,138.788,397.295,114.843,374.846,105.364Zm9.478,69.342c-2.993,18.458-10.975,38.911-26.44,50.385-9.977,6.984-21.451,10.476-32.925,12.97-44.4,8.979-15.465-52.879-4.49-72.834,7.982-13.968,21.95-28.435,39.41-27.936a25.3,25.3,0,0,1,19.456,10.975C384.823,155.749,385.821,165.228,384.324,174.706Z" transform="translate(195.256 42.765)" fill="#edc89d"/>
      <path id="Path_325" data-name="Path 325" d="M241.063,204.061a378.275,378.275,0,0,0,89.8,23.447,393,393,0,0,0,93.786,1c29.932-3.492,60.362-9.977,88.8-20.952,21.95-8.481,45.9-23.447,49.387-48.888,3.991-27.936-18.458-51.383-42.4-61.859-13.968-5.986-28.435-8.98-42.9-10.975-16.462-2.494-32.925-4.989-49.886-6.485-29.932-2.494-59.863-3.492-89.8-1.5a222.95,222.95,0,0,0-40.907,3.991c-14.966,2.993-30.431,6.984-44.4,12.472-23.446,8.98-49.387,24.943-57.369,50.884C185.69,174.628,217.617,194.582,241.063,204.061Zm308.8-32.426c-5.986,9.977-15.964,16.961-25.941,21.95-10.975,5.986-23.446,9.977-35.419,13.469a402.878,402.878,0,0,1-42.4,9.977,388.927,388.927,0,0,1-86.8,5.487,359.665,359.665,0,0,1-86.3-14.966c-13.469-3.991-27.437-8.481-40.408-14.467-9.977-4.49-19.456-10.476-26.44-18.957,15.465-16.961,35.918-25.941,57.369-32.925a305.013,305.013,0,0,1,72.834-14.966c50.385-4.49,101.269,0,151.155,7.982,13.469,2,27.437,3.492,40.408,7.483,11.474,2.993,23.945,11.474,24.444,24.444A26.727,26.727,0,0,1,549.859,171.635Zm-347.707-4.49c-6.485-13.469-.5-27.936,8.481-38.412a90.559,90.559,0,0,1,28.934-22.449c46.893-24.943,105.26-23.945,157.141-21.451,30.929,1.5,62.358,4.49,92.788,10.975,25.442,4.989,53.877,15.964,63.854,42.4a42.771,42.771,0,0,1,2.494,13.469,39.7,39.7,0,0,0-9.977-10.476c-10.476-6.984-23.447-8.98-35.419-10.975-26.938-4.49-53.877-8.481-80.816-10.476-52.879-4.49-107.754-2.993-158.638,12.97-13.469,4.49-26.938,9.478-39.41,15.964-10.476,5.487-19.954,12.97-26.44,22.948A11.78,11.78,0,0,1,202.152,167.145Z" transform="translate(-84.518 -53.438)" fill="#431715"/>
      <path id="Path_326" data-name="Path 326" d="M329.948,108.11c-17.46-.5-31.428,13.469-39.41,27.936C279.563,156,250.63,217.86,295.028,208.88c11.474-2.494,23.447-5.487,32.925-12.97,15.465-11.474,23.447-31.927,26.44-50.385,1.5-8.979.5-18.957-4.989-26.939A26.3,26.3,0,0,0,329.948,108.11Zm15.465,32.925c-1,8.481-4.49,16.961-7.982,24.444s-7.483,14.467-13.469,19.456c-7.483,6.485-25.941,17.46-36.916,9.478-12.97-9.478-.5-31.428,3.991-42.9,5.488-13.968,13.968-28.934,28.435-34.421,6.485-2.494,13.968-2.494,19.954,2C345.413,124.573,346.411,133.552,345.413,141.035Z" transform="translate(225.188 71.447)" fill="#431715"/>
      <path id="Path_327" data-name="Path 327" d="M748.706,215.247a69.5,69.5,0,0,0-41.406-4.989c-9.478,2-19.456,5.986-27.437,12.472,1.5-12.472,2.494-25.442,0-37.913a63.45,63.45,0,0,0,1.5-23.945c-4.49-33.424-36.417-51.383-64.353-62.857-69.342-28.435-146.167-29.433-219.5-21.95a241.754,241.754,0,0,0-26.44,3.991c-.5,0-1,.5-1.5,1-5.986,1.5-11.973,2.494-17.959,4.49A290.935,290.935,0,0,0,298.732,104.5c-13.968,6.485-27.437,14.966-38.412,26.44-9.977,10.975-20.453,28.435-15.964,43.9a7.09,7.09,0,0,1,1,2.993c-3.991,33.424-.5,67.845,4.49,101.269,4.989,34.92,10.975,69.841,22.449,102.766a187.365,187.365,0,0,0-30.929,13.469c-14.467,7.483-28.934,14.966-41.406,25.442-10.975,8.98-21.451,19.954-25.941,33.424a45.259,45.259,0,0,0,4.49,38.412c7.483,11.474,18.458,19.954,30.431,26.939,13.469,7.982,27.437,14.467,41.9,20.952a24.32,24.32,0,0,0,5.488,2,.489.489,0,0,0,.5.5c37.914,38.412,91.292,55.374,143.672,62.358,30.929,3.991,61.859,3.991,92.788,3.492l46.394-1.5c14.966-.5,29.932-2,44.4-5.487,13.968-3.492,27.437-8.98,38.911-16.961a89.576,89.576,0,0,0,14.467-12.97c2-2.494,3.991-4.989,5.986-7.982a17.719,17.719,0,0,0,2-4.49c25.442-8.481,51.383-19.456,70.339-38.412,20.453-20.952,31.428-54.376,16.961-81.813-6.984-13.469-19.456-23.945-31.927-32.426a112.764,112.764,0,0,0-12.97-7.982c12.472-3.991,24.943-6.485,36.417-12.472,11.973-6.485,21.95-16.462,29.932-27.437,8.481-11.474,15.465-24.444,21.451-37.415,6.485-14.467,11.973-29.433,12.471-45.4C788.116,250.666,771.653,226.222,748.706,215.247ZM250.842,165.361a35.347,35.347,0,0,1,4.49-13.968c6.485-13.469,17.959-23.447,30.431-31.428,13.469-8.481,28.934-14.966,43.9-20.453A336.369,336.369,0,0,1,383.04,85.543a3.771,3.771,0,0,0,2-.5c13.469-1,26.938-2.494,39.909-3.492,17.46-1,35.419-1.5,53.378-1.5,34.92.5,69.342,4.49,103.264,13.968a282.222,282.222,0,0,1,48.39,17.959c12.97,6.485,26.44,14.966,35.419,26.939,18.957,25.941,8.481,59.863-13.469,80.317-24.943,23.447-60.861,30.431-93.287,35.918-37.415,6.485-75.328,7.982-113.242,5.487-61.859-3.991-132.7-17.46-177.595-63.854-5.487-5.487-10.975-11.474-14.467-18.458a22.376,22.376,0,0,1-2.494-9.478v-3.492Zm8.979,127.709a644.461,644.461,0,0,1-9.478-107.255,77.742,77.742,0,0,0,7.982,9.977,185.964,185.964,0,0,0,17.46,16.961c11.973,9.977,25.941,18.458,39.909,25.442,30.431,14.467,62.857,21.95,96.28,26.44a476.608,476.608,0,0,0,119.228,1.5,443.777,443.777,0,0,0,57.369-9.478c16.961-3.991,33.424-9.478,48.888-17.959,14.467-8.481,27.437-20.453,35.918-35.419,0,6.984-.5,13.968-1,20.952a333.978,333.978,0,0,1-6.984,38.911c-5.986,25.941-13.469,51.882-20.453,77.324-7.982,30.431-16.462,64.353-30.431,94.285-1.5,2.494-2.993,4.989-3.492,7.483-18.957,37.914-48.39,67.346-98.276,69.342-9.478.5-19.456.5-28.934.5a542.856,542.856,0,0,1-56.87-2.993c-17.46-2-35.419-4.989-51.383-12.471a139.773,139.773,0,0,1-36.916-24.444C286.261,427.762,270.3,357.921,259.821,293.069ZM631.473,566.944c-3.492,4.49-7.982,7.982-12.472,11.474a105.3,105.3,0,0,1-31.927,15.465c-27.936,7.982-57.868,7.483-86.8,8.481-56.371,2-113.242,1.5-167.119-17.46A215.535,215.535,0,0,1,267.8,548.486a565.239,565.239,0,0,0,74.829,23.447c62.857,14.966,128.706,18.458,193.059,11.973a515.733,515.733,0,0,0,94.784-19.456,31.8,31.8,0,0,1,3.492-1C633.469,564.45,632.471,565.448,631.473,566.944Zm78.82-137.686c9.977,9.977,16.961,21.95,16.961,36.417,0,13.469-4.989,26.939-12.472,37.914-16.961,24.444-46.394,36.417-73.333,45.4a551.28,551.28,0,0,1-88.8,22.449,527.818,527.818,0,0,1-183.581-2,538.34,538.34,0,0,1-88.3-24.444c-14.467-5.487-28.435-11.474-42.4-17.959-12.472-5.986-25.442-12.472-36.417-20.453-9.977-7.483-19.456-17.46-21.95-30.431-2.494-13.469,3.492-26.44,11.973-35.918,9.478-10.975,21.451-18.957,33.424-26.44,14.467-8.481,29.433-15.465,44.4-22.449,1.5-.5,2.993-1.5,4.989-2l5.986,14.966,2.494,5.488c10.476,22.948,23.945,43.9,41.406,61.859,23.446,23.446,51.882,38.412,84.806,43.9,20.952,3.492,42.9,4.989,64.353,5.986q16.462.748,32.925,0c50.884-1,87.3-30.431,110.248-72.834,4.989-3.492,8.481-8.481,12.97-12.97,4.989-4.989,9.977-9.977,15.465-14.467a30.276,30.276,0,0,1,4.989-3.492c2.494-3.991,12.97-7.982,12.97-7.982a99.722,99.722,0,0,1,10.476-4.989C686.847,411.3,699.817,419.281,710.293,429.259ZM763.173,319.01a178.044,178.044,0,0,1-19.954,33.923c-7.483,9.977-16.961,18.957-27.936,24.444-21.95,10.476-47.392,15.964-68.843,28.934a121.123,121.123,0,0,0-15.964,11.973c6.485-20.453,12.471-40.408,17.959-61.36,7.483-26.939,14.966-54.376,21.95-81.314,3.492-14.467,6.984-29.433,8.979-44.4,8.481-5.986,16.462-10.975,26.938-13.469,11.973-2.494,24.444-2,35.419,2.993,22.449,9.977,35.419,33.424,33.923,57.868C775.145,292.072,769.658,306.04,763.173,319.01Z" transform="translate(-171.619 -72.107)" fill="#431715"/>
      <path id="Path_328" data-name="Path 328" d="M488.263,133.021C473.3,141.5,456.335,146.99,439.374,150.98a1.833,1.833,0,0,0-1.5.5v6.485a364.517,364.517,0,0,1-14.467,83.31c-3.991,13.469-8.979,26.938-16.462,38.412-8.98,13.968-21.451,24.943-33.923,35.918-27.936,24.444-56.87,49.387-92.289,59.863-23.447,6.485-47.392,6.485-71.836,7.483a110.308,110.308,0,0,0,16.961,8.979c16.462,7.483,33.923,10.476,51.383,12.472a542.9,542.9,0,0,0,56.87,2.993c9.478,0,19.456,0,28.934-.5,49.886-2,78.82-31.428,98.276-69.342a50.331,50.331,0,0,1,3.492-7.483c13.968-29.932,22.449-63.854,30.431-94.285,6.984-25.941,14.467-51.383,20.453-77.324a353.9,353.9,0,0,0,6.984-38.911,147.34,147.34,0,0,0,1-20.952C515.7,112.568,502.729,125.04,488.263,133.021Z" transform="translate(-22.922 33.565)" fill="#e4af84"/>
      <path id="Path_329" data-name="Path 329" d="M383.825,204.066c7.982-12.472,14.467-26.44,13.469-41.406-2-21.95-25.442-39.909-47.392-35.419-7.483,1.5-18.458,3.991-21.451-3.492-1-2-.5-3.991-.5-5.986a30.869,30.869,0,0,1,8.481-16.462c-8.979,2.494-16.462,6.984-23.945,12.472a333.267,333.267,0,0,1-8.979,44.4c-6.984,27.437-14.467,54.376-21.95,81.314q-8.231,30.68-17.959,61.36a121.131,121.131,0,0,1,15.964-11.973c12.97-7.483,27.437-12.472,41.406-17.46-.5-1.5-1.5-2.993-2-4.49-1-5.487,2-10.975,6.485-14.467s9.977-4.989,14.966-7.483C359.381,237.489,372.85,221.027,383.825,204.066Zm-25.941,18.957c-9.977,6.984-21.451,10.476-32.925,12.97-44.4,8.98-15.465-52.879-4.49-72.834,7.982-13.968,21.95-28.435,39.41-27.936A25.3,25.3,0,0,1,379.336,146.2c5.488,7.982,6.485,17.46,4.989,26.939C381.331,191.594,373.349,212.047,357.885,223.022Z" transform="translate(195.256 44.335)" fill="#e4af84"/>
      <path id="Path_330" data-name="Path 330" d="M229.155,192.817c-2.494-9.478-4.49-18.957-6.984-28.435-2-8.979-2.993-18.458-4.989-27.936s-3.492-19.456-9.977-26.939c-2.993-3.492-8.979-2.494-11.474,1.5-4.989,8.481-4.49,19.954-3.991,29.932s2,19.954,2.993,29.932A279.391,279.391,0,0,0,200.72,200.3c2.993,10.975,6.485,23.446,18.458,26.44a10.464,10.464,0,0,0,10.975-4.49C236.638,213.27,231.649,202.794,229.155,192.817Z" transform="translate(-92.564 68.554)" fill="#f5dfc3"/>
      <path id="Path_331" data-name="Path 331" d="M221.644,149.964c0-.5-.5-1.5-.5-2s-.5-1-.5-2c-.5-1-1-2.494-1.5-3.492a13.23,13.23,0,0,0-2.494-2.993c-.5-.5-.5-1-1-1.5a8.948,8.948,0,0,0-3.492-2.494c-2.494-2-5.986-1.5-8.98-.5a8.132,8.132,0,0,0-5.487,6.485,26.352,26.352,0,0,0-.5,6.485,13.81,13.81,0,0,0,.5,4.49c.5.5.5,1.5,1,2a7.09,7.09,0,0,1,1,2.993c0,.5.5,1,1,1.5a8.759,8.759,0,0,0,2,2.494c0,.5.5.5.5,1a11.869,11.869,0,0,0,6.485,4.49,9.728,9.728,0,0,0,6.485-.5,2.592,2.592,0,0,0,2-1,6.012,6.012,0,0,0,2.494-2.494c1-1,1-2.494,1.5-3.492a13.812,13.812,0,0,0,.5-4.49A21.959,21.959,0,0,1,221.644,149.964Z" transform="translate(-69.588 175.261)" fill="#f5dfc3"/>
      <path id="Path_332" data-name="Path 332" d="M306.393,115.57c-.5-1-1-2.494-1.5-3.492a7.332,7.332,0,0,0-2.494-2.993,21.123,21.123,0,0,0-3.492-2.494c-1.5-1-2.494-2-3.991-2.993s-3.492-1-4.989-1h-3.492c-2.993.5-4.49,3.991-3.492,6.485.5,1,1,2.494,1.5,3.492a1.742,1.742,0,0,0,.5,1,10.154,10.154,0,0,0,3.492,2.993l-1.5-1a10.883,10.883,0,0,1,2.494,2c1.5,1,2.494,2.494,3.991,2.993s2.993,1.5,4.49,2c.5,0,1,.5,1.5.5a5.508,5.508,0,0,0,3.991,0h.5a3.219,3.219,0,0,0,2.993-2.993v-.5A12.389,12.389,0,0,0,306.393,115.57Z" transform="translate(271.192 49.52)" fill="#f5dfc3"/>
      <path id="Path_333" data-name="Path 333" d="M483.564,98.475c-12.97-3.492-26.938-4.989-40.408-7.483-7.982-1-15.964-2.494-23.945-3.492,2.993,2.993,5.488,6.984,5.986,10.975.5,3.492-.5,6.984-2,10.476-7.982,21.451-26.44,37.913-47.392,47.392s-43.9,12.97-66.847,14.467c-19.954,1.5-40.408,2-59.863-3.492-10.975-3.492-21.451-8.481-32.426-10.476a48.2,48.2,0,0,0-11.973-.5c7.982,2.993,15.964,5.487,23.945,7.982,27.936,7.982,57.369,13.469,86.3,14.966s58.367,0,86.8-5.487a402.908,402.908,0,0,0,42.4-9.977c11.973-3.492,23.945-7.483,35.419-13.469,9.977-5.487,19.954-12.472,25.941-21.95l2.993-5.986C507.509,109.949,495.037,101.967,483.564,98.475Z" transform="translate(-39.674 -10.708)" fill="#742e2c"/>
      <path id="Path_334" data-name="Path 334" d="M396.044,87.2a466.4,466.4,0,0,0-69.841,1,356.211,356.211,0,0,0-72.834,14.966c-21.451,6.984-41.9,16.462-57.369,32.925,6.485,8.481,16.462,14.467,26.44,18.957h0c0-4.989,1.5-9.478,3.492-13.968,5.488-10.476,15.465-18.458,26.44-23.446s22.948-7.483,34.421-9.478Q342.167,97.672,396.044,87.2Z" transform="translate(-74.375 -15.393)" fill="#ab6759"/>
      <path id="Path_335" data-name="Path 335" d="M207.081,97.094l-.5-1c-.5-.5-.5-1-1-1a1.833,1.833,0,0,0-1.5-.5h-2.494a3.782,3.782,0,0,0-2,1c0,.5-.5.5-.5,1a3,3,0,0,0-.5,2,1.833,1.833,0,0,0,.5,1.5c0,.5.5,1,1,1.5a3.88,3.88,0,0,0,3.991,1h.5c.5,0,.5-.5,1-.5.5-.5,1-.5,1-1a1.742,1.742,0,0,0,.5-1c0-.5.5-1,.5-1.5C207.58,97.593,207.58,97.094,207.081,97.094Z" transform="translate(-64.004 17.611)" fill="#903737"/>
      <path id="Path_336" data-name="Path 336" d="M207.388,92.8c-6.984,0-6.984,10.975,0,10.975S214.372,92.8,207.388,92.8Z" transform="translate(-49.845 10.431)" fill="#903737"/>
      <path id="Path_337" data-name="Path 337" d="M215.181,92.893a3.782,3.782,0,0,0-1-2c-.5,0-.5-.5-1-.5a3,3,0,0,0-2-.5,1.833,1.833,0,0,0-1.5.5c-.5,0-1,.5-1.5,1s-.5,1-1,1.5a1.833,1.833,0,0,0-.5,1.5v1a3.782,3.782,0,0,0,1,2c.5,0,.5.5,1,.5a3,3,0,0,0,2,.5,1.833,1.833,0,0,0,1.5-.5c.5,0,1-.5,1.5-1s.5-1,1-1.5a1.833,1.833,0,0,0,.5-1.5Z" transform="translate(-31.696 -1.136)" fill="#903737"/>
      <path id="Path_338" data-name="Path 338" d="M214.493,90.2H212l-.5.5v1l.5.5h2.494c.5-.5,1-1,1-1.5A1.742,1.742,0,0,0,214.493,90.2Z" transform="translate(-12.551 0.061)" fill="#903737"/>
      <path id="Path_339" data-name="Path 339" d="M220.985,89.7h0c-.5-.5-.5-1-1-1-.5-.5-.5-.5-1-.5h-1a1.833,1.833,0,0,0-1.5.5l-1,1-.5.5a1.742,1.742,0,0,1-.5,1h0a1.833,1.833,0,0,0,.5,1.5c0,.5.5.5,1,1s.5.5,1,.5h1.5c.5,0,1-.5,1.5-1s.5-.5.5-1a1.742,1.742,0,0,1,.5-1C221.484,90.694,220.985,90.2,220.985,89.7Z" transform="translate(-0.585 -7.916)" fill="#903737"/>
      <path id="Path_340" data-name="Path 340" d="M225.984,89.3c-.5-.5-.5-1-1-1a3,3,0,0,0-2-.5,3.766,3.766,0,0,0-3.492,2l.5-.5h0c0,.5-.5.5-.5,1s-.5.5-.5,1v1a1.833,1.833,0,0,0,.5,1.5c0,.5.5.5.5,1a.489.489,0,0,0,.5.5,1.742,1.742,0,0,0,1,.5c.5,0,1,.5,1.5.5h1c.5,0,1-.5,1.5-1s1-1,1-1.5v-2C226.483,89.8,225.984,89.3,225.984,89.3Z" transform="translate(17.364 -9.512)" fill="#903737"/>
    </g>
    <g id="Group_16" data-name="Group 16" transform="translate(402.572 102.367)">
      <path id="Path_341" data-name="Path 341" d="M222.4,55Z" transform="translate(-200.028 -51.881)" fill="#dbbda6"/>
      <path id="Path_342" data-name="Path 342" d="M244.278,101.093v-1a7.091,7.091,0,0,1,1-2.993c0-.5,1-2.494,1-2.993,1-2.494,2.494-4.989,3.492-7.483,3.991-7.483,7.483-14.966,3.991-22.449a.489.489,0,0,0,.5.5c-1-2-2-3.492-2.993-5.487l1,1c-.5-.5-.5-1-1-1.5a.489.489,0,0,0-.5-.5l-.5-.5c-.5-1-1.5-1.5-2.494-2.494a3.333,3.333,0,0,0-4.989,0c-.5.5-1.5,1-2.494,2h0c-.5,0-1,.5-2,.5.5,0,1-.5,1.5-.5a11.972,11.972,0,0,0-5.986,3.492c-2.993,2.993-4.49,6.984-6.485,10.975-3.492,6.984-6.984,14.467-8.481,21.95-1.5,7.982-1.5,16.961,2.494,23.945,3.492,6.984,12.97,14.966,20.952,10.476,3.492-.5,5.487-4.49,4.49-7.483a18.713,18.713,0,0,0-.5-4.989h0c0-.5-.5-1-.5-1.5l-1.5-5.986c0-1-.5-2-.5-2.993v-1c.5-.5.5-2,.5-2.993Z" transform="translate(-217.915 -54.075)" fill="#dbbda6"/>
      <path id="Path_343" data-name="Path 343" d="M223.2,63.3v0Z" transform="translate(-196.837 -17.28)" fill="#dbbda6"/>
    </g>
    <path id="Path_344" data-name="Path 344" d="M255.945,147.389a49.849,49.849,0,0,1,3.991-6.984c6.485-10.975,10.975-21.451,11.973-34.421,1-11.474-1-23.447-3.991-34.421A65.3,65.3,0,0,0,260.435,53.1c-3.991-5.487-8.979-7.483-14.467-10.476-3.492-1.5-6.984-.5-8.481,3.492-2,6.485-4.49,11.973-2.993,18.957,1,5.986,3.492,11.973,4.989,18.458,2.494,10.476,3.991,21.451,0,31.927-4.49,11.474-12.472,20.453-13.469,32.925-1.5,15.465,8.979,26.939,23.945,28.934,10.476,1.5,13.968-12.97,7.982-19.456-2-2-3.492-4.49-2.993-6.485C254.948,151.879,255.945,148.886,255.945,147.389Z" transform="translate(216.391)" fill="#dbbda6"/>
    <g id="Group_17" data-name="Group 17" transform="translate(495.954 95.17)">
      <path id="Path_345" data-name="Path 345" d="M242.2,66.3Z" transform="translate(-214.435 1.883)" fill="#dbbda6"/>
      <path id="Path_346" data-name="Path 346" d="M269.887,73.423c0,2.993,0,2.494-.5-2v1.5a21.214,21.214,0,0,0-1-5.487,35.91,35.91,0,0,0-1-4.49,8.949,8.949,0,0,0-2.494-3.492,4.5,4.5,0,0,0-.5-2.494c-.5-3.492-4.49-5.986-6.984-2.993-1,1-2,1.5-2.993,2.494a14.935,14.935,0,0,0-3.991,2c-.5.5-4.49,5.487-2.993,2.993a6.888,6.888,0,0,0-1.5,2c-.5.5-1,1.5-1.5,2,1.5-2,1-1.5-1.5,2l1-1c-3.492,2.494-4.49,7.982-5.487,11.973l-1.5,10.476a68.27,68.27,0,0,0,.5,17.46c1,5.487,2.494,11.973,6.984,15.964.5.5.5,1,1,1,.5.5,3.991,2.494,2.494,1.5,4.49,3.492,9.977,2.993,12.97-1.5-1.5,2,2-2.494,2-2.494v-.5c3.492-4.49,3.492-10.975,3.991-16.462.5-4.989.5-9.478,1-14.467,0-2.494.5-4.49.5-6.984V76.417A1.963,1.963,0,0,0,269.887,73.423Z" transform="translate(-236.634 -52.632)" fill="#dbbda6"/>
    </g>
    <path id="Path_347" data-name="Path 347" d="M305.19,178.012c-6.485-2-13.469,1-18.957,4.49a37.667,37.667,0,0,0-6.984,5.487,27.416,27.416,0,0,0-3.492,4.49,20.848,20.848,0,0,0-2,4.989,9.728,9.728,0,0,0,.5,6.485v.5c0,2.494,1,3.991,2.993,5.487a6.556,6.556,0,0,0,5.986,1.5h1a10.057,10.057,0,0,0,5.487-1.5l2.993-1.5c.5-.5,1-1,1.5-1a56.456,56.456,0,0,0,6.485-4.989c-1,.5-1.5,1.5-2.494,2,1.5-1,2.494-2,3.991-2.993a43.158,43.158,0,0,0,4.989-3.492.489.489,0,0,0,.5-.5l.5-.5-.5.5,1.5-1.5a8.948,8.948,0,0,0,2.494-3.492C315.168,187.49,311.676,180.008,305.19,178.012Z" transform="translate(406.1 540.075)" fill="#431715"/>
  </g>
</svg>
