<svg xmlns="http://www.w3.org/2000/svg" width="40.423" height="28.294" viewbox="0 0 40.423 28.294">
        <path id="Icon_awesome-coffee" data-name="Icon awesome-coffee"
          d="M12.126,24.481H24.251a6.065,6.065,0,0,0,6.063-6.063h2.021a8.084,8.084,0,1,0,0-16.168H7.578A1.512,1.512,0,0,0,6.063,3.766V18.418A6.065,6.065,0,0,0,12.126,24.481ZM32.335,6.292a4.042,4.042,0,0,1,0,8.084H30.314V6.292Zm3.013,24.252H3.05C.044,30.544-.8,26.5.776,26.5H37.615c1.579,0,.745,4.042-2.267,4.042Z"
          transform="translate(0.004 -2.25)"></path>
      </svg>