<svg xmlns="http://www.w3.org/2000/svg" width="329.103" height="432.254" viewBox="0 0 329.103 432.254">
  <g id="OBJECTS" transform="translate(-341.432 -276.88)">
    <ellipse id="Ellipse_82" data-name="Ellipse 82" cx="106.484" cy="22.777" rx="106.484" ry="22.777" transform="translate(367.25 663.58)" fill="#976a4d"/>
    <g id="Group_23" data-name="Group 23" transform="translate(341.432 276.88)">
      <path id="Path_376" data-name="Path 376" d="M378.881,414.494c20.5,7.4,42.138,10.25,64.061,11.1,31.319,1.139,63.776-1.424,93.672-10.535a183.831,183.831,0,0,0,20.784-7.972c5.979-2.847,11.958-5.979,16.513-10.819,8.542-8.541,10.25-20.784,7.118-32.173-3.132-12.243-11.389-21.069-21.638-28.187a77.832,77.832,0,0,0-17.652-8.542c-3.986-1.424-8.541-2.562-12.812-3.7,3.417,7.118,5.979,16.513,1.993,23.631a2.026,2.026,0,0,1-3.7-.854c-.569-4.271-.285-8.541-1.139-12.812a43.328,43.328,0,0,0-4.556-11.389c-4.271-7.4-10.819-13.382-17.652-18.222-7.4-5.125-15.09-9.68-22.777-14.236-4.271-2.278-8.257-4.555-12.527-6.833-3.132-1.424-6.264-2.847-9.4-4.555a7.464,7.464,0,0,1,1.424,2.562,18.571,18.571,0,0,1,.569,6.833,23.86,23.86,0,0,1-5.41,12.527c-5.694,6.833-14.805,10.534-23.062,13.666-9.68,3.7-19.645,6.548-29.326,10.25-8.826,3.417-17.652,7.687-25.055,13.666a68.134,68.134,0,0,0-13.666,16.513c.285,0,.569-.285,1.139-.285A51.54,51.54,0,0,1,377.173,353a45.367,45.367,0,0,1,12.243,1.708c1.139.285.854,1.708-.285,1.993a41.352,41.352,0,0,1-10.25.569,67.127,67.127,0,0,0-10.534.569c-6.548,1.139-12.812,3.986-17.368,9.111a25.65,25.65,0,0,0-6.264,17.937C346.139,403.105,364.646,409.369,378.881,414.494Z" transform="translate(-335.41 -274.073)" fill="#ebeae0"/>
      <path id="Path_377" data-name="Path 377" d="M355.966,354.523c.569-.285,1.139-.285,1.424.285,0,.285.285.569.285.854,6.548,4.271,14.521,6.833,21.638,9.4a303.073,303.073,0,0,0,137.233,12.527c21.638-3.132,44.7-7.972,63.207-20.215,11.673-7.687,21.923-21.354,18.791-35.874a35.223,35.223,0,0,0-4.271-9.4c.285,11.389-3.7,22.493-12.812,30.18-5.979,4.84-12.812,8.257-19.645,11.389a162,162,0,0,1-23.347,8.257,172.719,172.719,0,0,1-24.2,4.555c-1.139,0-1.993.285-3.132.285-4.271.569-8.257,1.139-12.812,1.424-6.833.569-13.951.854-20.784,1.139-23.347.854-46.978,0-70.04-4.84a158.228,158.228,0,0,1-30.465-9.68,94.91,94.91,0,0,1-14.236-7.118c-3.132-1.708-23.916-16.513-17.083-22.208-3.417,2.847-4.271,7.972-3.417,12.243.854,5.125,3.986,9.68,7.687,13.1A30.488,30.488,0,0,1,355.966,354.523Z" transform="translate(-340.397 -211.824)" fill="#d8dada"/>
      <path id="Path_378" data-name="Path 378" d="M487.3,339.017a36.465,36.465,0,0,0-41.284,6.833c-2.562,16.8-5.125,33.6-7.972,50.395A58.522,58.522,0,0,1,452.28,380.3a33.3,33.3,0,0,1,16.8-7.4c11.389-1.139,21.923,4.84,24.486,16.229s-1.708,23.916-7.687,33.6a65.217,65.217,0,0,1-25.055,23.916c-5.125,2.847-10.819,4.555-16.229,6.833a47.854,47.854,0,0,0-8.541,4.271c-2.562,1.708-4.271,3.7-6.548,5.41a3.068,3.068,0,0,1-2.278.569L422.1,497.034c3.132-3.132,6.833-6.264,10.25-9.111a44.912,44.912,0,0,1,11.1-6.833c7.972-3.7,16.513-6.264,25.055-9.111,7.4-2.562,14.805-5.125,21.069-9.68,7.4-5.125,11.958-12.812,15.09-21.354,7.118-19.076,12.812-41.284,9.4-61.5C511.785,363.217,502.959,346.419,487.3,339.017Z" transform="translate(-192.425 -168.701)" fill="#d8dada"/>
      <path id="Path_379" data-name="Path 379" d="M536.242,460.654c1.424-6.264,2.847-12.243,3.986-18.507,5.41-25.34,9.965-50.964,13.951-76.589.854-5.125,1.708-10.534,2.278-15.659-4.271,4.555-10.819,8.257-16.229,11.1a106.465,106.465,0,0,1-20.5,8.257c-27.048,8.257-56.658,9.111-84.845,5.979a254.568,254.568,0,0,1-43.846-8.826,184.827,184.827,0,0,1-21.069-7.4c-5.694-2.562-11.958-5.125-17.368-8.257,5.41,28.756,10.25,57.8,16.229,86.554,2.278,9.965,4.555,19.93,7.118,29.9a76.97,76.97,0,0,0,15.09,9.965,98.7,98.7,0,0,0,17.368,6.548c21.354,5.694,44.7,6.264,66.339,2.562a154.126,154.126,0,0,0,31.6-9.111c5.125-2.278,10.25-4.84,15.09-7.4,4.84-2.847,9.111-6.264,13.951-8.826C535.957,460.654,535.957,460.654,536.242,460.654Z" transform="translate(-320.802 -142.002)" fill="#be9a7c"/>
      <path id="Path_380" data-name="Path 380" d="M419.482,415.77a149.788,149.788,0,0,1-33.6-6.833c-8.826-2.847-17.937-7.118-24.486-13.666,1.139,4.555,2.563,9.4,3.986,13.951q3.416,11.531,7.687,23.062c1.424,3.986,2.847,7.687,4.556,11.673,1.424,3.7,2.562,7.687,3.7,11.673,5.41,8.257,16.513,11.673,26.479,12.528,6.833.569,13.951.285,20.784.569,7.118.285,14.236.569,21.354.285,22.208-.854,45.839-7.4,55.8-29.326,5.125-10.819,7.118-23.347,9.965-35.02,1.139-4.555,1.993-9.111,2.847-13.666a117.339,117.339,0,0,1-12.812,7.687,139.782,139.782,0,0,1-17.652,7.972C466.175,414.631,442.544,418.048,419.482,415.77Z" transform="translate(-304.547 -66.083)" fill="#d7c3ab"/>
      <path id="Path_381" data-name="Path 381" d="M567.816,365.444c1.424-11.673,3.7-23.916,2.563-35.589-.569.285-1.139.854-1.708,1.139-21.069,12.812-46.409,17.652-70.325,20.5a291.1,291.1,0,0,1-75.45-1.139,279.651,279.651,0,0,1-37.3-7.687c-11.1-3.132-22.493-6.548-33.027-11.389A31.13,31.13,0,0,1,348.3,329c2.278,7.118,3.986,14.521,5.694,21.923,1.993,9.111,3.986,18.222,5.694,27.333L361.4,386.8c7.118,2.847,13.951,6.264,21.354,8.826s15.09,5.125,22.777,7.118a251.74,251.74,0,0,0,86.269,7.4c13.1-1.139,26.194-3.417,38.437-7.687a130.636,130.636,0,0,0,18.222-7.972,86.811,86.811,0,0,0,8.542-5.41c2.563-1.708,4.84-3.986,7.687-5.41a1.293,1.293,0,0,1,1.424,0A127.489,127.489,0,0,1,567.816,365.444Z" transform="translate(-328.745 -180.607)" fill="#ebeae0"/>
      <path id="Path_382" data-name="Path 382" d="M593.165,326.324a48.26,48.26,0,0,1-8.826,8.257c1.993,14.236-.854,29.041-2.847,43.277q-2.99,23.062-6.833,46.124-6.833,40.572-15.375,81.144c-2.847,13.382-5.979,26.479-9.111,39.575-2.847,11.389-6.548,22.777-14.521,31.6-16.8,18.222-43.277,19.645-66.339,18.506-6.833-.285-13.382-.569-20.215-.854-6.264-.285-12.527-.569-18.791-2.562-8.542-2.562-16.8-8.826-19.361-17.937-.285-.569-.854-1.139-1.139-1.708-.854-1.708-1.708-3.7-2.562-5.694-1.708-4.271-3.417-8.542-4.84-12.812-3.132-8.542-5.979-17.368-8.541-26.194-9.111-31.888-15.375-64.63-21.069-97.373-2.847-16.229-5.694-32.458-9.111-48.686-1.708-8.257-3.132-16.229-4.84-24.486-1.424-7.118-3.417-14.236-4.555-21.354-4.271-2.847-8.541-5.979-11.389-10.25.285,1.708.854,3.7,1.139,5.41,9.68,47.548,19.361,94.81,28.756,142.358,4.555,23.631,8.826,47.263,13.951,70.609,4.556,19.93,11.389,43.277,31.034,52.957,8.826,4.555,19.076,5.979,29.041,6.548,10.819.854,21.923,1.139,33.027,1.139,11.389,0,22.777-.854,33.881-3.7,5.41-1.424,10.819-3.132,15.375-6.264a44.493,44.493,0,0,0,11.1-10.819c12.528-16.229,17.652-36.444,21.069-56.374,3.986-22.777,7.4-46.124,10.819-68.9C579.5,414.016,586.332,370.17,593.165,326.324Z" transform="translate(-338.72 -188.18)" fill="#d8dada"/>
      <path id="Path_383" data-name="Path 383" d="M640.293,444.349c-13.382-6.833-32.742-5.979-44.131,4.555l4.271-26.479c.854-5.979,1.993-12.243,2.847-18.222v-1.139c.285-.569.285-.854.569-1.424,2.562-8.826,1.993-23.631-7.4-28.472h-.569a2.134,2.134,0,0,0-.285-1.424c-1.993-13.382-10.25-25.34-21.069-33.312-6.264-4.555-13.951-7.972-21.069-10.535a86.5,86.5,0,0,0-11.389-3.417c-2.847-.569-5.979-1.424-8.826-1.424-4.271-6.833-10.25-12.527-16.8-17.652-7.687-5.979-16.513-10.819-25.055-15.659l-13.666-6.833c-4.555-1.993-9.111-4.555-13.951-5.979a1.425,1.425,0,0,0-1.708,1.424,1.31,1.31,0,0,0-.854,1.993c.854,1.708.854,3.986,1.424,5.979a15.519,15.519,0,0,1-.285,6.264c-.854,4.271-3.132,7.4-6.264,10.25-6.833,6.264-15.944,9.4-24.486,12.527-17.083,5.979-35.02,11.389-48.971,23.062a52.012,52.012,0,0,0-9.4,9.965,39.1,39.1,0,0,0-3.7,5.694,16.446,16.446,0,0,0-1.708,4.84,29.436,29.436,0,0,0-13.666,9.68,30.035,30.035,0,0,0-6.264,18.222c-6.548,3.7-7.4,11.673-5.694,18.507,8.541,48.117,18.222,95.949,27.333,143.782,4.555,24.485,9.4,48.971,14.236,73.741,3.986,20.5,8.826,44.416,25.055,59.221,15.375,14.236,37.867,14.521,57.513,15.09,11.673.569,23.347.854,35.02-.285,11.1-1.139,23.062-3.132,32.742-8.826,17.652-10.25,26.763-31.888,31.888-50.395,2.562-8.826,3.986-18.222,5.694-27.333.285,0,.569.285,1.139,0,5.125-.854,8.542-5.125,12.243-8.257a47.474,47.474,0,0,1,10.819-7.118c7.687-3.7,16.229-6.264,24.2-8.826s15.944-5.41,22.777-10.535c7.972-5.694,13.1-13.382,16.513-22.208a177.261,177.261,0,0,0,9.111-31.888c1.993-11.1,2.847-22.208,1.139-33.312C666.2,470.543,656.806,452.606,640.293,444.349ZM357.57,370.038c4.555-5.125,10.534-7.972,17.368-9.111a42.881,42.881,0,0,1,10.535-.569c3.417,0,6.833-.285,10.25-.569a1.019,1.019,0,0,0,.285-1.993,43.852,43.852,0,0,0-12.243-1.708,51.536,51.536,0,0,0-11.389,1.139c-.285,0-.57.285-1.139.285,3.7-6.264,7.972-11.958,13.666-16.513,7.4-5.979,15.944-10.25,25.055-13.666,9.68-3.7,19.645-6.548,29.326-10.25,8.257-3.132,17.368-6.833,23.062-13.666a23.563,23.563,0,0,0,5.41-12.527,14.018,14.018,0,0,0-.569-6.833,5.5,5.5,0,0,0-1.424-2.562c3.132,1.708,6.264,3.132,9.4,4.555,4.271,2.278,8.542,4.555,12.527,6.833,7.687,4.555,15.375,9.111,22.777,14.236,6.833,4.84,13.382,10.819,17.652,18.222a39.763,39.763,0,0,1,4.556,11.389c.854,4.271.569,8.542,1.139,12.812.285,1.708,2.562,2.847,3.7.854,3.986-7.118,1.139-16.513-1.993-23.631,4.271,1.424,8.542,2.278,12.812,3.7,5.979,2.278,12.243,4.84,17.652,8.541,10.25,7.118,18.507,16.229,21.638,28.187,3.132,11.1,1.424,23.631-7.118,32.173a63.669,63.669,0,0,1-16.513,10.819,165.116,165.116,0,0,1-20.784,7.972c-29.9,9.111-62.637,11.673-93.671,10.535-21.923-.854-43.277-3.7-64.061-11.1-14.521-5.125-32.742-11.1-33.6-29.326A23.168,23.168,0,0,1,357.57,370.038Zm-9.965,19.93c-6.833,5.694,13.666,20.5,17.083,22.208,4.555,2.562,9.4,4.84,14.236,7.118a164.772,164.772,0,0,0,30.465,9.68c23.062,4.84,46.409,5.979,70.04,4.84,6.833-.285,13.951-.569,20.784-1.139a97.988,97.988,0,0,0,12.812-1.424,11.678,11.678,0,0,0,3.132-.285,172.7,172.7,0,0,0,24.2-4.555,142.517,142.517,0,0,0,23.347-8.257c6.833-3.132,13.666-6.548,19.645-11.389,9.111-7.687,13.1-18.791,12.812-30.18,1.708,3.132,3.417,5.979,4.271,9.4,3.132,14.521-7.118,28.187-18.791,35.874-18.506,12.243-41.568,17.083-63.207,20.215A303.074,303.074,0,0,1,381.2,429.544c-7.4-2.562-15.09-5.125-21.638-9.4,0-.285-.285-.569-.285-.854-.285-.854-1.139-.854-1.424-.285a25.512,25.512,0,0,1-5.41-4.271c-3.7-3.417-6.833-7.972-7.687-13.1C343.334,397.94,343.9,392.816,347.6,389.968Zm195.03,214.391a105.709,105.709,0,0,1-15.09,7.4,149.139,149.139,0,0,1-31.6,9.111c-21.638,3.7-44.985,3.132-66.339-2.562a90.912,90.912,0,0,1-17.368-6.548,106.376,106.376,0,0,1-15.09-9.965c-2.562-9.965-4.84-19.93-7.118-29.9-6.264-28.756-11.1-57.513-16.229-86.554,5.694,3.132,11.673,5.694,17.368,8.257a184.824,184.824,0,0,0,21.069,7.4,254.568,254.568,0,0,0,43.846,8.826c27.9,3.132,57.8,2.278,84.845-5.979a128.513,128.513,0,0,0,20.5-8.257c5.41-2.847,11.673-6.548,16.229-11.1-.854,5.125-1.424,10.535-2.278,15.659-3.986,25.624-8.826,51.249-13.951,76.589-1.424,6.264-2.847,12.243-3.986,18.506h-.285C551.746,598.1,547.191,601.512,542.635,604.359Zm12.812-2.562c-1.139,4.556-1.993,9.111-2.847,13.666-2.847,11.673-4.84,23.916-9.965,35.02-9.965,21.923-33.6,28.756-55.8,29.326-7.118.285-14.236,0-21.354-.285-6.833-.285-13.951,0-20.784-.57-9.68-.854-21.069-4.271-26.479-12.527-1.139-3.986-2.278-7.687-3.7-11.673-1.424-3.7-3.132-7.687-4.556-11.673q-4.271-11.531-7.687-23.062c-1.424-4.555-2.847-9.4-3.986-13.951,6.833,6.548,15.944,10.819,24.486,13.666a149.78,149.78,0,0,0,33.6,6.833,161.137,161.137,0,0,0,68.616-9.111,139.792,139.792,0,0,0,17.652-7.972C546.906,607.207,551.462,604.929,555.448,601.8Zm21.069-121.858c-2.847,1.424-5.125,3.7-7.687,5.41-2.847,1.993-5.694,3.7-8.542,5.41a103.929,103.929,0,0,1-18.222,7.972,161.515,161.515,0,0,1-38.437,7.687,251.738,251.738,0,0,1-86.269-7.4c-7.687-1.993-15.09-4.555-22.777-7.118-7.4-2.562-14.236-5.694-21.354-8.826l-1.708-8.541c-1.708-9.111-3.7-18.222-5.694-27.333-1.708-7.4-3.417-14.805-5.694-21.923,1.424.854,2.847,1.424,4.271,2.278,10.535,4.84,21.923,8.257,33.027,11.389a279.653,279.653,0,0,0,37.3,7.687,304.217,304.217,0,0,0,75.45,1.139c23.916-2.847,49.541-7.687,70.325-20.5.569-.285,1.139-.854,1.708-1.139,1.139,11.958-.854,23.916-2.562,35.589l-2.562,17.937C577.371,479.654,576.8,479.654,576.517,479.939ZM564.558,615.748c-3.417,19.645-8.542,40.145-21.069,56.374a50.05,50.05,0,0,1-11.1,10.819c-4.84,3.132-9.965,4.84-15.375,6.264-11.1,2.847-22.493,3.7-33.881,3.7-11.1,0-21.923-.285-33.027-1.139-9.965-.569-20.215-1.993-29.041-6.548-19.645-9.965-26.479-33.312-31.034-52.957-5.125-23.347-9.4-47.263-13.951-70.609-9.4-47.548-19.076-95.1-28.756-142.358-.285-1.708-.854-3.7-1.139-5.41a48.955,48.955,0,0,0,11.389,10.25c1.139,7.118,3.132,14.236,4.555,21.354,1.708,8.257,3.417,16.229,4.84,24.486,3.132,16.229,5.979,32.458,9.111,48.686,5.979,32.742,11.958,65.485,21.069,97.373,2.562,8.826,5.41,17.652,8.541,26.194,1.424,4.271,3.132,8.542,4.84,12.812a34.58,34.58,0,0,0,2.563,5.694,5.957,5.957,0,0,0,1.139,1.708c2.562,8.826,10.535,15.09,19.361,17.937,5.979,1.993,12.528,2.278,18.791,2.562,6.833.285,13.382.569,20.215.854,23.062.854,49.541-.285,66.339-18.507,7.972-8.826,11.673-20.215,14.521-31.6,3.417-13.1,6.264-26.479,9.111-39.576,5.979-26.763,11.1-54.1,15.375-81.144q3.844-23.062,6.833-46.124c1.993-14.236,4.555-28.756,2.847-43.277a60.646,60.646,0,0,0,8.826-8.257c-6.833,43.846-13.666,87.977-20.5,131.823C571.676,569.624,568.544,592.971,564.558,615.748Zm22.493-110.185a1.26,1.26,0,0,0,1.993.569c4.271-3.7,7.687-8.541,12.243-12.243,4.271-3.7,9.111-6.833,14.805-7.972a20.654,20.654,0,0,1,14.805,1.708c4.84,2.562,7.4,7.687,7.687,13.1.854,10.535-3.7,21.639-9.68,30.18a59.583,59.583,0,0,1-23.916,20.5c-5.41,2.562-11.1,4.271-16.514,6.833-3.7,1.708-7.972,3.7-11.1,6.833C581.072,544.854,583.919,525.208,587.051,505.563Zm67.193,43.846c-3.132,8.257-7.687,15.944-15.09,21.354-6.264,4.555-13.666,7.4-21.069,9.68-8.541,2.847-17.083,5.125-25.055,9.111a72.474,72.474,0,0,0-11.1,6.833,102.07,102.07,0,0,0-10.25,9.111l5.125-33.312a3.828,3.828,0,0,0,2.278-.569c2.278-1.708,4.271-3.986,6.548-5.41a47.863,47.863,0,0,1,8.542-4.271c5.41-2.278,11.1-3.986,16.229-6.833a65.216,65.216,0,0,0,25.055-23.916c5.694-9.68,9.965-22.208,7.687-33.6-2.562-11.389-13.382-17.652-24.486-16.229a31.048,31.048,0,0,0-16.8,7.4,58.52,58.52,0,0,0-14.236,15.944c2.562-16.8,5.125-33.6,7.972-50.395,10.819-10.819,27.333-13.1,41.284-6.833,15.659,7.4,24.485,24.2,27.333,40.43C667.056,508.126,661.362,530.333,654.244,549.409Z" transform="translate(-341.432 -276.88)" fill="#431715"/>
      <path id="Path_384" data-name="Path 384" d="M473.859,370.573c1.139-2.562.569-5.694-.285-8.257a22.315,22.315,0,0,0-2.562-5.979,28.98,28.98,0,0,0-8.542-9.965c-2.847-1.993-5.979-3.132-8.826-4.555-1.424-.569-3.132-1.424-4.271-1.993A7.672,7.672,0,0,0,445.1,338.4h-1.708a3.931,3.931,0,0,0-3.7,2.847c-2.278,8.826,9.111,11.958,14.805,15.659.285.285.569.285.854.569h0l1.708,1.708h0c.285.285.57.569.57.854a8.526,8.526,0,0,1,1.139,2.278v.285a2.158,2.158,0,0,0,.569,1.139c.285.854.569,1.424.854,2.278.854,2.278,1.708,4.84,3.417,6.548a5.406,5.406,0,0,0,4.271,2.278,3.742,3.742,0,0,0,3.417-.854A6.124,6.124,0,0,0,473.859,370.573Z" transform="translate(-160.477 -163.244)" fill="#fff"/>
      <path id="Path_385" data-name="Path 385" d="M460.773,359.61a11.542,11.542,0,0,0-1.424-2.562,4.486,4.486,0,0,0-1.993-1.993c-.285,0-.285-.285-.569-.285a4.115,4.115,0,0,0-1.993-.57,5.277,5.277,0,0,0-1.993.57l-.285.285c-.285.285-.854.569-1.139.854a15.9,15.9,0,0,0-1.424,2.278c.285-.285.285-.854.569-1.139-.285.285-.285.854-.569,1.139a6.489,6.489,0,0,0-.854,3.132v.854a4.846,4.846,0,0,0,.285,1.993,2.566,2.566,0,0,0,.285,1.424c.285.569.285,1.139.569,1.424s.569.854.854,1.139a6.356,6.356,0,0,0,3.7,1.708,5.249,5.249,0,0,0,4.84-3.7c.285-.285.285-.569.285-1.139a5.549,5.549,0,0,0,.285-2.278A3.1,3.1,0,0,0,460.773,359.61Z" transform="translate(-142.552 -134.059)" fill="#fff"/>
      <path id="Path_386" data-name="Path 386" d="M557.459,407.091c5.979-2.847,11.958-5.979,16.513-10.819,8.542-8.541,10.25-20.784,7.118-32.173-3.132-12.243-11.389-21.069-21.638-28.187a77.832,77.832,0,0,0-17.652-8.542c-3.986-1.424-8.541-2.562-12.812-3.7,3.417,7.118,5.979,16.513,1.993,23.631a2.026,2.026,0,0,1-3.7-.854c-.569-4.271-.285-8.541-1.139-12.812a43.328,43.328,0,0,0-4.556-11.389c-4.271-7.4-10.819-13.382-17.652-18.222-7.4-5.125-15.09-9.68-22.777-14.236-4.271-2.278-8.257-4.555-12.527-6.833-3.132-1.424-6.264-2.847-9.4-4.555.285.285.569.854.854,1.139,13.951,12.812,27.333,27.617,31.319,46.124,4.556,19.361-5.125,43.277-24.485,48.117,4.555,7.972,14.805,11.673,23.916,10.819,9.111-.569,17.652-5.125,25.625-9.965,3.986-2.562,8.826-5.41,13.382-4.555,6.264,1.139,9.68,8.826,8.257,14.805-1.424,6.264-6.264,11.1-11.389,14.805-19.076,13.666-44.131,15.944-67.762,15.659-40.714-.569-84.276-8.542-113.886-36.159a19.158,19.158,0,0,0-.285,5.694c.854,18.222,19.361,24.2,33.6,29.326,20.5,7.4,42.138,10.25,64.061,11.1,31.319,1.139,63.776-1.424,93.672-10.535A126.4,126.4,0,0,0,557.459,407.091Z" transform="translate(-335.471 -274.073)" fill="#ded5c2"/>
      <path id="Path_387" data-name="Path 387" d="M351.8,318.315c.285,0,.569-.285,1.139-.285a51.539,51.539,0,0,1,11.389-1.139A45.365,45.365,0,0,1,376.57,318.6c.854.285.854,1.139.285,1.424,7.687.57,15.659,1.139,21.923-2.562-3.132-4.271-9.4-3.986-14.521-5.41-6.264-1.708-11.958-6.548-13.666-12.812a2.152,2.152,0,0,0-.285-1.139,31.08,31.08,0,0,0-4.84,3.7C359.772,306.357,355.786,312.051,351.8,318.315Z" transform="translate(-322.28 -237.684)" fill="#ded5c2"/>
      <path id="Path_388" data-name="Path 388" d="M410.553,300.375v-.854c-.285-3.417-2.278-5.694-5.41-7.118h0a9.068,9.068,0,0,0-7.687.57c-2.562,1.424-5.125,2.847-7.972,4.271-1.139.569-2.562,1.139-3.7,1.708a.994.994,0,0,0-.569.285c-1.139.569-2.278.854-3.417,1.424l-1.708.854c-.285,0-.569.285-.854.285h0c-.57.285-1.139.285-1.708.569s-1.424.569-1.993.854h0c-3.7,1.424-8.826,3.7-7.972,8.542,1.139,4.555,7.118,5.125,10.819,5.41a44.229,44.229,0,0,0,10.535-1.139,59.618,59.618,0,0,0,9.965-3.7,41.6,41.6,0,0,0,9.4-6.264,9.62,9.62,0,0,0,2.562-5.41c-.285.285-.285,0-.285-.285Z" transform="translate(-293.341 -249.355)" fill="#fff"/>
      <path id="Path_389" data-name="Path 389" d="M396.328,291.755h0c-.285-.854-.285-1.424-.854-1.708a6.653,6.653,0,0,0-1.993-1.993,4.592,4.592,0,0,0-2.562-.854,5.493,5.493,0,0,0-2.847.854h0a5.956,5.956,0,0,0-1.708,1.139c-.285.285-.569.854-.854,1.139v.285c-.285.285-.285.57-.569.854v.285a1.046,1.046,0,0,0-.285.854c0,.285-.285.569-.285.854v.569a1.046,1.046,0,0,1-.285.854,2.567,2.567,0,0,1-.285,1.424,2.567,2.567,0,0,0,.285,1.424c.285.285.285.854.57,1.139a3.43,3.43,0,0,0,1.423,1.424,2.159,2.159,0,0,0,1.139.57,2.133,2.133,0,0,0,1.424.285h1.424a5.277,5.277,0,0,0,1.993-.57c.285-.285.569-.285.854-.569l.285-.285c.285-.285.854-.569,1.139-.854l.569-.569c.285-.285.285-.569.569-.854s.285-.57.569-.854a6.489,6.489,0,0,0,.854-3.132C396.612,292.894,396.612,292.04,396.328,291.755Z" transform="translate(-263.171 -257.818)" fill="#fff"/>
      <path id="Path_390" data-name="Path 390" d="M373.984,311.278a.279.279,0,0,0-.285-.285l-.285-.285c-.569-.569-.854-.569-1.139-.854a10.047,10.047,0,0,0-3.986-.854,16.889,16.889,0,0,0-6.548,1.424c-1.708.569-3.132,1.708-4.84,2.562a9.808,9.808,0,0,0-4.555,5.979c-.285,1.708.285,3.986,1.993,4.84a7.881,7.881,0,0,0,3.7.854,13.862,13.862,0,0,0,3.417-.285,27.4,27.4,0,0,0,5.125-1.993,14.144,14.144,0,0,0,5.41-3.7,10.007,10.007,0,0,0,1.993-2.562l.854-2.562v-.57A2.029,2.029,0,0,0,373.984,311.278Z" transform="translate(-321.402 -217.55)" fill="#fff"/>
      <path id="Path_391" data-name="Path 391" d="M449.244,330.12c-11.1,6.833-23.347,11.1-35.874,14.521,1.424,16.229.854,32.742,0,48.971a65.088,65.088,0,0,1-.569,7.118,125.67,125.67,0,0,0,15.375-6.833,86.786,86.786,0,0,0,8.541-5.41c2.563-1.708,4.84-3.986,7.687-5.41a1.293,1.293,0,0,1,1.424,0l2.563-17.937c1.424-11.673,3.7-23.916,2.562-35.589C450.383,329.266,449.813,329.835,449.244,330.12Z" transform="translate(-209.603 -179.734)" fill="#ded5c2"/>
      <path id="Path_392" data-name="Path 392" d="M479.871,406.659a169.845,169.845,0,0,1-26.194,7.118c-14.236,13.1-31.6,22.208-50.964,24.2-12.527,1.139-24.77-.569-37.013-3.417,1.139,3.132,2.278,6.264,3.7,9.4,1.424,3.7,2.562,7.687,3.7,11.673,5.41,8.257,16.514,11.673,26.479,12.527,6.833.569,13.951.285,20.784.569,7.118.285,14.236.569,21.354.285,22.208-.854,45.839-7.4,55.8-29.326,5.125-10.819,7.118-23.347,9.965-35.02,1.139-4.556,1.993-9.111,2.847-13.666a117.361,117.361,0,0,1-12.812,7.687A110.845,110.845,0,0,1,479.871,406.659Z" transform="translate(-296.605 -66.083)" fill="#beac97"/>
      <path id="Path_393" data-name="Path 393" d="M471.857,349.8c-4.271,4.555-10.819,8.257-16.229,11.1a120.317,120.317,0,0,1-16.513,7.118c-2.278,29.9-6.548,59.79-19.93,86.554a127.8,127.8,0,0,1-20.784,29.9,141.865,141.865,0,0,0,23.631-7.4c5.125-2.278,10.25-4.84,15.09-7.4,4.84-2.847,9.111-6.264,13.951-8.826h.285c1.424-6.264,2.847-12.243,3.986-18.507,5.41-25.34,9.965-50.964,13.951-76.589A154.7,154.7,0,0,0,471.857,349.8Z" transform="translate(-236.202 -142.186)" fill="#9c8067"/>
      <path id="Path_394" data-name="Path 394" d="M372.788,351.71c-.285-1.424-.285-3.132-.569-4.555a19.616,19.616,0,0,0-.854-2.278,12.1,12.1,0,0,0-2.847-4.84,10.227,10.227,0,0,0-2.847-1.993,6,6,0,0,0-6.833.854c-3.417,3.132-3.7,8.257-3.986,12.527,0,1.708-.285,3.132-.285,4.84a13.548,13.548,0,0,0,1.139,7.4,2.461,2.461,0,0,0,.854,1.708,3.932,3.932,0,0,1,.854,1.139c.854,1.139.854,1.139-.285-.285a7.3,7.3,0,0,0,5.125,3.417c2.278.285,3.986-.569,5.979-1.993l-.854.854c.57-.569,1.139-.854,1.708-1.424a6.221,6.221,0,0,0,.854-1.424,18.411,18.411,0,0,0,2.562-4.555,11.066,11.066,0,0,0,.569-4.271A30.924,30.924,0,0,0,372.788,351.71Z" transform="translate(-317.359 -165.165)" fill="#fff"/>
      <path id="Path_395" data-name="Path 395" d="M385.145,415.059c-.569-6.264-1.993-12.527-3.132-18.791-2.278-11.389-4.271-23.916-9.965-33.881-2.562-4.555-10.25-3.986-11.389,1.424-2.562,11.389-.285,23.631.854,35.02.854,6.264,1.424,12.527,2.847,18.791s5.41,14.521,13.1,13.382C384.86,430.149,385.714,421.038,385.145,415.059Z" transform="translate(-308.077 -124.593)" fill="#d6b092"/>
      <path id="Path_396" data-name="Path 396" d="M386.488,364.632c0-.285-.285-.569-.285-.854-.285-.285-.285-.854-.854-1.139-.285-.285-.569-.285-.569-.569a4.046,4.046,0,0,0-1.708-.569c-.569,0-1.139.285-1.708.285a4.59,4.59,0,0,0-1.993,1.139l-.569.569a7.547,7.547,0,0,0-1.424,1.708c-.285.285-.285.854-.569,1.139s-.285.854-.569,1.139a1.815,1.815,0,0,0,0,1.708,1.712,1.712,0,0,0,.285,1.139,6.229,6.229,0,0,0,.854,1.424,4.588,4.588,0,0,0,1.993,1.139,1.712,1.712,0,0,1,1.139.285,3.61,3.61,0,0,0,1.708-.285,2.158,2.158,0,0,0,1.139-.569c.569-.285.854-.854,1.139-1.139s.569-.854.854-1.139c.569-.57.569-1.424.854-2.278,0-.569.285-1.139.285-1.708S386.488,364.917,386.488,364.632Z" transform="translate(-277.533 -120.575)" fill="#9c8067"/>
      <path id="Path_397" data-name="Path 397" d="M395.066,382.272c-.569-.854-1.139-1.424-1.708-2.278-.285-.569-.854-.854-1.139-1.424a14.925,14.925,0,0,0-3.132-2.847c-.57-.285-.854-.569-1.424-.854a5.133,5.133,0,0,0-2.847-.569,3.331,3.331,0,0,0-3.132,2.278,9.687,9.687,0,0,0-.285,2.847c0,.569.285.854.285,1.424a13.071,13.071,0,0,0,1.993,3.986,21.734,21.734,0,0,0,2.278,3.132,7.817,7.817,0,0,0,5.979,3.132,4.627,4.627,0,0,0,4.271-3.132A7.013,7.013,0,0,0,395.066,382.272Z" transform="translate(-267.604 -96.931)" fill="#9c8067"/>
      <path id="Path_398" data-name="Path 398" d="M384.134,390.147c0-.285-.285-.569-.285-.854a3.934,3.934,0,0,0-.854-1.139,3.233,3.233,0,0,0-2.278-.854h-1.424c-.569,0-.854.285-1.424.569a7.141,7.141,0,0,0-1.993,1.139A12.051,12.051,0,0,0,374.454,391a4.592,4.592,0,0,0-.854,2.562,2.566,2.566,0,0,0,.285,1.424c0,.285.285.854.285,1.139a6.229,6.229,0,0,0,.854,1.424,4.048,4.048,0,0,0,1.708.569h1.139a1.711,1.711,0,0,0,1.139-.285c.285-.285.854-.285,1.139-.569l.854-.854.285-.285a7.547,7.547,0,0,0,1.424-1.708c.285-.569.569-1.424.854-1.993a3.61,3.61,0,0,0,.285-1.708C384.419,391,384.419,390.432,384.134,390.147Z" transform="translate(-282.012 -72.918)" fill="#9c8067"/>
      <path id="Path_399" data-name="Path 399" d="M399.525,370.624c0-.285-.285-.569-.569-.854-.285-.569-.854-1.424-1.139-1.993s-1.139-.569-1.139,0c-.285.285-.285.569-.569,1.139l-.285.285-.285.285c-.285.285-.569.854-.854,1.139v.569c0,.569-.285,1.139-.285,1.708a9.687,9.687,0,0,0,.285,2.847c.285.854.285,1.993,1.139,1.993a1.479,1.479,0,0,0,1.139-.569l.854-.854a6.225,6.225,0,0,0,.854-1.424,19.62,19.62,0,0,0,.854-2.278v-1.424C399.525,371.478,399.525,371.194,399.525,370.624Z" transform="translate(-243.591 -109.769)" fill="#9c8067"/>
      <path id="Path_400" data-name="Path 400" d="M407.585,384.47a13.156,13.156,0,0,0-1.993-1.993c.285.285.569.569.854.569a6.2,6.2,0,0,0-2.278-1.424H403.6a6.27,6.27,0,0,0-2.278-.285,1.712,1.712,0,0,1,1.139.285c-.569,0-.854-.285-1.424-.285a4.825,4.825,0,0,0-2.847,0h-.57a3.912,3.912,0,0,0-2.278,1.424,3.953,3.953,0,0,0-.569,3.132c.569,1.424,1.139,2.847,2.562,3.7a8.524,8.524,0,0,0,2.847,1.139,6.526,6.526,0,0,0,5.125-.569,5,5,0,0,0,1.424-1.139,3.656,3.656,0,0,0,1.139-2.847v-.285C408.439,385.609,408.154,385.04,407.585,384.47Z" transform="translate(-243.109 -84.324)" fill="#9c8067"/>
      <path id="Path_401" data-name="Path 401" d="M416.695,366.693c-.285-.569-.854-1.424-1.708-1.424a1.712,1.712,0,0,1-1.139-.285,2.134,2.134,0,0,0-1.424-.285h-1.139a3.974,3.974,0,0,0-2.562.854c-.569.285-.854.285-1.424.569-.285.285-.569.569-.854.569l-.854.854v.285c0,.285-.285.285-.285.569a4.033,4.033,0,0,0-.285,3.132,3.188,3.188,0,0,0,2.278,1.993,7.01,7.01,0,0,0,3.417.285c.854-.285,1.424-.569,2.278-.854a5.11,5.11,0,0,0,1.993-1.424l.569-.569c.285-.285.569-.854.854-1.139s.569-.569.569-.854A3.374,3.374,0,0,0,416.695,366.693Z" transform="translate(-224.317 -114.664)" fill="#9c8067"/>
      <path id="Path_402" data-name="Path 402" d="M378.165,345.918c-.285-1.139-.854-2.278-1.139-3.132a15.65,15.65,0,0,0-1.993-2.562A4.079,4.079,0,0,0,371.9,338.8h-.569a3.515,3.515,0,0,0-2.278,1.139c0,.285-.285.285-.285.569a5.277,5.277,0,0,0-.569,1.993v.854a4.846,4.846,0,0,0,.285,1.993c.285.569.285,1.139.569,1.708a5.723,5.723,0,0,0,1.139,2.278,5.8,5.8,0,0,0,1.708,1.993c.285,0,.285.285.569.285a4.683,4.683,0,0,0,2.847.285,3.01,3.01,0,0,0,1.993-1.708,9.046,9.046,0,0,0,.854-2.562A1.792,1.792,0,0,0,378.165,345.918Z" transform="translate(-291.987 -162.505)" fill="#ded5c2"/>
      <path id="Path_403" data-name="Path 403" d="M381.166,351.071c-.569-.285-.854-.854-1.424-1.139h0a6.917,6.917,0,0,0-3.986-2.562c-.57,0-.854-.285-1.424-.285a7.076,7.076,0,0,0-2.278-.285h-1.993c-.569.285-.854.569-1.424.854a2.4,2.4,0,0,0-1.139,1.993,2.133,2.133,0,0,0,.285,1.424,4.427,4.427,0,0,0,1.708,2.278l.569.569c.854.569,1.424.854,2.278,1.424.569.285.854.285,1.424.569,1.708.569,4.271.569,5.694-.854h.285c.285,0,.285-.285.569-.285.569-.285.854-.569,1.424-.854C382.02,353.064,382.02,351.64,381.166,351.071Z" transform="translate(-293.28 -147.728)" fill="#ded5c2"/>
      <path id="Path_404" data-name="Path 404" d="M396.42,350.456v-.285a5.121,5.121,0,0,0-1.708-2.562l.285.285a.279.279,0,0,1-.285-.285l-.285-.285-.285-.285h0c-.285-.285-.569-.285-.854-.569a2.152,2.152,0,0,0-1.139-.285c-.854,0-1.424-.285-2.278-.285h-2.562c-.569,0-1.139.285-1.708.285a3.85,3.85,0,0,0-2.562,2.562,2.432,2.432,0,0,0,0,1.993l.854,1.708a6.653,6.653,0,0,0,1.993,1.993,1.046,1.046,0,0,0,.854.285,5.277,5.277,0,0,0,1.993.57h1.139a9.048,9.048,0,0,0,3.986-.57c.285-.285.569-.285.854-.569a2.223,2.223,0,0,0,1.139-1.139c.569-.569.569-1.139.854-1.993C396.42,351.31,396.42,351.025,396.42,350.456Z" transform="translate(-264.972 -149.39)" fill="#ded5c2"/>
      <path id="Path_405" data-name="Path 405" d="M403.85,346.718a4.046,4.046,0,0,0-.569-1.708.279.279,0,0,0-.285-.285c0-.285-.285-.285-.285-.57s-.285-.285-.285-.569a.279.279,0,0,0-.285-.285,9.662,9.662,0,0,0-1.708-1.708c-.569-.285-.854-.569-1.424-.569l-.569-.285a2.432,2.432,0,0,0-1.993,0c-.569,0-.854.285-1.424.569-.285.285-.854.569-.854,1.139a4.116,4.116,0,0,0-.569,1.993,4.221,4.221,0,0,0,.285,1.993,4.59,4.59,0,0,0,1.139,1.993c0,.285.285.285.285.569l.569.569c0,.285.285.285.285.57.285.285.57.569.854.569.569.285,1.424.569,1.993.854a2.432,2.432,0,0,0,1.993,0c.569,0,.854-.285,1.424-.57.285-.285.854-.569.854-1.139a4.115,4.115,0,0,0,.569-1.993C403.85,347.572,403.85,347.287,403.85,346.718Z" transform="translate(-245.069 -159.319)" fill="#ded5c2"/>
      <path id="Path_406" data-name="Path 406" d="M407.45,353.232v-.285c0-.854-.569-1.708-1.424-1.424h-.285c-.285,0-.854-.285-1.139-.285h.285a3.144,3.144,0,0,0-2.278,0h-.285c-.285,0-.569.285-.854.285a7.465,7.465,0,0,0-2.562,1.424c.285-.285.569-.569.854-.569-.285,0-.285.285-.569.285a.279.279,0,0,0-.285.285,7.55,7.55,0,0,0-1.424,1.708,3.612,3.612,0,0,0-.285,1.708v.854a3.657,3.657,0,0,0,2.847,2.847,4.845,4.845,0,0,0,1.993.285,10.116,10.116,0,0,0,2.847-.569c.285-.285.569-.285.854-.569a6.653,6.653,0,0,0,1.993-1.993c.285-.569.569-.854.569-1.424A13.4,13.4,0,0,1,407.45,353.232Z" transform="translate(-238.419 -139.924)" fill="#ded5c2"/>
      <path id="Path_407" data-name="Path 407" d="M414.111,347.617c0-.285-.285-.569-.569-.854h0a1878.444,1878.444,0,0,0-.569-.569h0c-.285-.285-.569-.854-1.139-1.139s-.854-.285-1.139-.569h-.569c-.285,0-.854-.285-1.139-.285a5.278,5.278,0,0,0-1.993.569,3.43,3.43,0,0,0-1.424,1.424,4.114,4.114,0,0,0-.569,1.993,2.567,2.567,0,0,0,.285,1.424v.285h0a2.422,2.422,0,0,0,.854,1.424,2.223,2.223,0,0,0,1.139,1.139c.285.285.569.285,1.139.569h.285a12.322,12.322,0,0,1,1.424.285h1.139c.285,0,.569-.285.854-.285.285-.285.569-.285.854-.569a6.223,6.223,0,0,0,.854-1.424c.285-.285.285-.569.285-1.139v-1.139C414.4,348.471,414.111,347.9,414.111,347.617Z" transform="translate(-224.011 -152.53)" fill="#ded5c2"/>
      <path id="Path_408" data-name="Path 408" d="M381.219,405.81c0-.285-.285-.285-.285-.569v-.285c-.285-.285-.285-.854-.569-1.139a3.928,3.928,0,0,1-.854-1.139,2.223,2.223,0,0,0-1.139-1.139c-.285-.285-.569-.285-.854-.569a4.115,4.115,0,0,0-1.993-.57,2.133,2.133,0,0,0-1.424.285,5.024,5.024,0,0,0-2.278,2.562c0,.285-.285.569-.285,1.139a1.815,1.815,0,0,0,0,1.708,4.23,4.23,0,0,0,.57,2.563.279.279,0,0,0,.285.285c0,.285.285.285.285.569a.279.279,0,0,0,.285.285h0a5,5,0,0,0,1.139,1.424c.569.285.854.569,1.424.854h1.708a2.133,2.133,0,0,0,1.424-.285,3.828,3.828,0,0,0,1.993-1.708,2.175,2.175,0,0,0,.569-1.424A2.575,2.575,0,0,0,381.219,405.81Z" transform="translate(-286.214 -48.72)" fill="#beac97"/>
      <path id="Path_409" data-name="Path 409" d="M389.287,403.962a1.561,1.561,0,0,0-1.708-1.139.994.994,0,0,1-.569-.285h-.569a3.143,3.143,0,0,0-2.278,0h.285a6.7,6.7,0,0,0-2.278.569c-.285,0-.285.285-.569.285-.569.285-.854.854-1.139,1.139a3.025,3.025,0,0,0-.285,2.278,4.047,4.047,0,0,0,.569,1.708,5.959,5.959,0,0,0,1.708,1.139h.569c.569,0,.854.285,1.424.285a4.592,4.592,0,0,0,2.562-.854c.285,0,.569-.569.854-.569.285-.285.569-.569.569-.854l.285-.285a5.28,5.28,0,0,0,.569-1.993Z" transform="translate(-270.082 -45.164)" fill="#beac97"/>
    </g>
  </g>
</svg>
